<svg baseProfile="full" height="556.5974539663684" version="1.1" width="623.765000396892" xmlns="http://www.w3.org/2000/svg">
  <defs>
    <style type="text/css"><![CDATA[polyline,line,rect,path,polygon,.polygon{fill:none;stroke:#000;stroke-width:1px;stroke-linejoin:round;}
.land { fill: white; stroke: none; }
.ne_10m_rivers_lake_centerlines_scale_rank {
	fill: none; stroke: #0978ab; stroke-width: 2;
}
#Huang {
	stroke-width: 4;
}
.Xia_capitals {
	fill: none; stroke: #f00; stroke-width: 2;
}
.Erlitou_sites {
	fill: black; stroke: none;
}
]]></style>
  </defs>
  <rect height="557" width="625" class="land"/>
  <g fill_rule="evenodd" transform="scale(1,-1) translate(-9844.638919307448,-4252.404548303051)">
    <g class="featurecla scalerank rivernum dissolve name name_alt note min_zoom strokeweig name_en min_label ne_id label wikidataid name_ar name_bn name_de name_es name_fr name_el name_hi name_hu name_id name_it name_ja name_ko name_nl name_pl name_pt name_ru name_sv name_tr name_vi name_zh wdid_score" id="ne_10m_rivers_lake_centerlines_scale_rank">
      <polyline class="ne_10m_rivers_lake_centerlines_scale_rank" id="Fen" points="10110.5,4252.4 10110.2,4250.8 10110.2,4245.6 10111.9,4241.0 10116.2,4236.4 10119.5,4234.3 10120.6,4233.4 10123.1,4230.4 10124.5,4229.7 10126.2,4230.3 10127.0,4228.3 10128.5,4226.3 10130.4,4224.8 10133.9,4223.4 10138.3,4220.3 10140.5,4219.7 10144.1,4221.8 10146.0,4222.4 10149.9,4222.8 10151.7,4223.4 10153.5,4224.3 10155.3,4225.7 10156.6,4227.3 10159.1,4231.1 10160.5,4231.8 10161.5,4231.7 10162.4,4231.2 10163.1,4230.4 10163.3,4229.1 10163.7,4228.3 10164.8,4228.0 10166.0,4227.7 10167.0,4227.2 10169.4,4224.0 10171.1,4219.6 10172.2,4214.6 10172.6,4209.7 10172.5,4208.4 10172.0,4206.3 10171.9,4205.0 10172.2,4203.9 10173.1,4201.5 10173.2,4200.1 10172.6,4197.9 10171.1,4196.7 10167.6,4195.2 10161.8,4190.8 10160.8,4189.4 10160.6,4188.4 10160.1,4187.8 10158.6,4186.4 10158.4,4185.5 10158.4,4181.5 10157.5,4179.5 10155.1,4176.6 10154.0,4172.1 10152.5,4170.1 10149.1,4166.9 10146.6,4163.6 10145.3,4161.4 10144.8,4159.7 10144.6,4158.8 10144.1,4157.9 10143.4,4157.0 10142.6,4156.1"/>
      <polyline class="ne_10m_rivers_lake_centerlines_scale_rank" id="Fen" points="10142.6,4156.1 10139.2,4153.3 10136.7,4149.4 10132.7,4141.2 10130.5,4138.0 10129.2,4137.0 10124.9,4135.2 10121.7,4134.4 10117.6,4131.6 10116.2,4130.3 10112.0,4124.4 10111.3,4123.1 10110.6,4120.9 10109.2,4119.2 10107.5,4117.9 10106.4,4116.7 10106.0,4115.7 10105.5,4113.6 10105.1,4112.8 10104.5,4112.2 10103.0,4111.5 10102.3,4110.9 10101.4,4108.8 10101.9,4106.8 10102.7,4104.6 10102.6,4102.1 10101.4,4100.8 10097.3,4099.2 10096.5,4097.9 10096.2,4097.0 10094.8,4094.3 10093.8,4093.1 10094.0,4091.6 10094.6,4089.2 10095.2,4075.9 10095.5,4075.4 10096.6,4075.1 10097.4,4074.2 10098.0,4072.9 10098.3,4071.6 10098.0,4070.7 10096.8,4068.1 10096.5,4067.0 10096.5,4065.6 10096.9,4063.3 10097.0,4062.1 10096.8,4061.0 10096.3,4059.8 10095.6,4059.0 10094.9,4058.6 10094.3,4058.1 10094.1,4056.8 10093.9,4052.6 10093.9,4052.5 10093.8,4052.0 10093.5,4051.5 10093.4,4051.0 10093.2,4049.5 10093.6,4043.7 10094.1,4041.6 10094.4,4039.8 10093.9,4038.0 10089.1,4032.3 10088.7,4031.3 10079.7,4022.1 10079.2,4021.2 10078.8,4020.3 10078.6,4019.2 10078.4,4016.7 10078.0,4015.6 10077.3,4014.7 10075.0,4014.0 10074.4,4013.0 10074.1,4011.7 10073.6,4010.5 10070.9,4007.6 10070.3,4005.7 10071.4,4003.3 10071.8,4002.2 10071.1,3999.7 10071.4,3998.8 10072.4,3997.6 10072.7,3996.9 10071.2,3988.4 10071.1,3985.8 10071.6,3983.6 10071.8,3982.2 10071.4,3981.6 10070.6,3981.1 10070.2,3979.7 10070.0,3978.1 10069.8,3977.0 10066.6,3972.5 10066.4,3971.7 10063.1,3971.3 10061.3,3970.8 10060.5,3969.8 10060.2,3968.0 10059.4,3966.4 10058.3,3965.3 10057.1,3964.9"/>
      <polyline class="ne_10m_rivers_lake_centerlines_scale_rank" id="Fen" points="10057.1,3964.9 10055.2,3964.6 10054.3,3963.8 10052.8,3961.4 10051.8,3960.3 10051.3,3959.8 10050.6,3959.5 10049.6,3959.3 10049.4,3959.5 10049.2,3960.0 10048.8,3960.3 10042.5,3961.7 10033.6,3960.6 10030.8,3961.7 10029.4,3960.7 10027.4,3960.0 10015.9,3958.7 10016.5,3958.7 10014.8,3958.3 10013.5,3958.6 10012.3,3959.2 10010.9,3959.5 10009.3,3959.0 10007.7,3957.8 10005.4,3955.7 9996.7,3949.8 9994.2,3947.2"/>
      <polyline class="ne_10m_rivers_lake_centerlines_scale_rank" id="Wei" points="9844.6,3829.6 9844.9,3829.8 9849.7,3831.0 9853.3,3833.4 9858.6,3835.2 9860.4,3837.4 9862.4,3837.2 9865.4,3835.9 9869.3,3832.9 9869.9,3832.7 9871.9,3832.8 9872.8,3833.0 9873.8,3833.5 9874.8,3834.1 9875.6,3834.7 9876.3,3836.0 9876.5,3836.9 9876.6,3837.9 9877.1,3839.0 9877.5,3839.3 9879.6,3840.5 9879.6,3841.2 9878.9,3841.6 9878.4,3842.1 9878.1,3842.7 9877.8,3843.6 9881.3,3845.3 9883.4,3845.9 9884.9,3845.4 9886.4,3844.5 9888.2,3844.2 9889.8,3844.8 9890.1,3846.6 9891.3,3846.1 9892.9,3845.9 9894.4,3846.1 9895.8,3847.8 9897.4,3847.0 9898.8,3845.7 9899.1,3845.0 9900.1,3844.8 9903.7,3842.7"/>
      <polyline class="ne_10m_rivers_lake_centerlines_scale_rank" id="Wei" points="9903.7,3842.7 9905.1,3842.1 9906.4,3841.8 9907.7,3842.1 9909.0,3843.2 9910.8,3846.1 9911.9,3848.4 9913.5,3849.7 9916.8,3849.6 9919.3,3848.9 9920.2,3848.8 9920.7,3849.3 9920.8,3850.2 9920.9,3851.2 9921.1,3851.9 9922.0,3853.3 9922.5,3853.6 9924.0,3852.6 9924.6,3852.8 9925.1,3853.4 9925.5,3854.2 9927.4,3852.2 9930.4,3853.5 9932.3,3851.9 9933.1,3852.7 9936.6,3854.2 9937.0,3854.8 9937.1,3855.6 9937.4,3856.2 9938.2,3856.5 9940.2,3856.4 9941.1,3856.7 9941.6,3857.6 9941.9,3859.6 9942.9,3858.8 9944.6,3855.8 9946.0,3855.5 9950.6,3856.5 9951.6,3857.0 9953.6,3859.1 9954.3,3859.6 9955.3,3859.2 9957.7,3857.3 9964.3,3853.9 9967.4,3853.3 9970.6,3854.2"/>
      <polyline class="ne_10m_rivers_lake_centerlines_scale_rank" id="Dali" points="9844.6,4228.8 9847.1,4228.8 9848.1,4229.3 9849.3,4231.4 9850.2,4231.8 9851.4,4232.0 9854.8,4233.4 9858.5,4233.4 9859.7,4233.7 9861.7,4234.7 9862.6,4234.9 9868.4,4233.9 9870.3,4234.0 9874.0,4235.6 9875.3,4235.9 9878.7,4235.6 9883.0,4236.4 9884.2,4236.0 9886.1,4234.5 9887.0,4234.0 9889.0,4234.5 9892.3,4237.3 9894.1,4238.2 9894.9,4239.2 9895.4,4239.4 9895.9,4239.3 9896.7,4238.7 9898.1,4238.4 9900.7,4237.1 9909.0,4234.6 9921.5,4233.4 9924.6,4231.6 9930.4,4226.5 9934.5,4225.0 9938.4,4225.2"/>
      <polyline class="ne_10m_rivers_lake_centerlines_scale_rank" id="Jing" points="9844.6,3838.8 9846.5,3839.0 9847.0,3838.7 9847.8,3837.7 9848.3,3837.4 9849.0,3838.1 9849.3,3838.6 9849.3,3839.0 9850.1,3838.3 9851.4,3836.6 9852.4,3835.9 9853.4,3835.7 9857.0,3835.9 9858.0,3836.2 9860.1,3837.2"/>
      <polyline class="ne_10m_rivers_lake_centerlines_scale_rank" id="Qin" points="10158.1,4071.6 10157.3,4070.5 10154.4,4056.0 10153.8,4054.8 10152.1,4053.9 10151.3,4051.8 10150.9,4046.7 10150.4,4044.7"/>
      <polyline class="ne_10m_rivers_lake_centerlines_scale_rank" id="Qin" points="10150.4,4044.7 10149.5,4042.7 10149.1,4042.1 10148.8,4041.8 10149.5,4041.5 10149.8,4040.7 10149.6,4039.9 10147.8,4039.1 10148.1,4038.1 10148.9,4037.0 10149.7,4036.4 10147.6,4035.5 10147.8,4033.8 10148.8,4031.5 10149.1,4028.8 10148.3,4026.6 10145.9,4022.4 10145.4,4019.7 10147.5,4020.0 10148.9,4018.2 10151.0,4013.6 10154.3,4010.2 10154.6,4009.5 10154.7,4007.8 10155.0,4007.1 10155.7,4006.2 10155.5,4005.6 10155.0,4005.1 10154.6,4004.1 10154.6,4002.8 10154.0,4000.6 10153.8,3995.7 10154.1,3994.4 10154.0,3992.9 10153.6,3991.4 10153.5,3990.0 10153.6,3988.2 10153.9,3986.9 10154.4,3985.8 10155.3,3984.6 10154.6,3983.8 10157.7,3982.7 10158.1,3981.9 10159.5,3979.7 10159.9,3979.2 10161.3,3978.6 10162.4,3977.0 10164.2,3973.6 10165.8,3972.5 10168.6,3972.6 10170.1,3971.7 10171.0,3970.1 10172.3,3965.2 10172.6,3963.3 10172.6,3959.1 10172.8,3958.0 10173.2,3956.8 10173.3,3955.6 10172.9,3954.5 10172.1,3953.6 10171.8,3953.5 10171.9,3953.2 10171.9,3952.2 10171.8,3951.1 10171.6,3950.5 10171.6,3950.0 10173.0,3948.2 10173.1,3947.7 10173.1,3947.2 10173.2,3946.5 10175.1,3943.4 10176.3,3939.0 10177.3,3937.1 10178.8,3937.4 10179.2,3936.3 10179.0,3935.7 10178.7,3935.2 10178.8,3934.4 10179.9,3931.7 10180.1,3930.9 10180.3,3930.6 10180.7,3929.9 10180.9,3929.2 10180.4,3928.9 10179.6,3928.6 10179.5,3927.7 10179.7,3926.7 10180.1,3925.9 10180.8,3926.7 10181.8,3925.5 10182.7,3924.3 10183.2,3922.7 10183.2,3920.6 10184.7,3921.2 10184.6,3919.8 10183.9,3917.8 10184.1,3916.8 10185.4,3916.3 10186.3,3915.1 10188.2,3912.1 10188.9,3911.3 10190.0,3910.2 10191.3,3909.6 10194.0,3911.0 10195.8,3911.5 10197.7,3911.6 10199.0,3911.0 10200.3,3910.1 10205.5,3909.9 10207.0,3909.4 10209.9,3907.9 10211.3,3907.6 10214.3,3906.5 10217.9,3902.1 10221.0,3901.5 10222.5,3902.0 10229.3,3901.5 10230.6,3901.6 10231.7,3901.9 10232.7,3902.4 10233.7,3903.4 10234.8,3904.2 10236.0,3904.1 10237.1,3903.8 10238.3,3903.8 10242.9,3906.1 10245.5,3907.0 10247.3,3906.5 10248.3,3905.9 10249.4,3905.8 10250.3,3905.5 10251.0,3903.2 10251.6,3902.2 10251.9,3901.0 10251.3,3900.0 10251.9,3898.6 10253.6,3895.3 10256.1,3892.5"/>
      <polyline class="ne_10m_rivers_lake_centerlines_scale_rank" id="Wuding" points="9938.4,4225.2 9942.2,4224.8 9945.9,4221.8 9950.6,4214.7 9955.6,4209.7 9959.2,4204.2 9960.3,4202.2 9960.7,4200.1 9962.8,4195.0 9962.5,4193.7 9962.1,4192.4 9962.0,4191.3 9962.1,4190.0 9962.4,4189.1 9963.0,4188.5 9964.2,4188.3 9964.9,4187.7 9965.1,4186.2 9965.1,4183.7 9966.7,4179.9 9967.1,4178.1 9970.1,4171.1 9971.2,4169.2 9974.5,4167.7 9975.4,4165.7 9975.6,4163.2 9975.0,4160.8 9977.2,4159.6 9978.4,4158.2 9980.0,4153.3 9980.6,4154.5 9981.0,4154.8 9981.4,4154.3 9981.8,4153.3 9981.6,4152.2 9980.7,4151.2 9980.5,4150.5 9982.2,4150.2 9983.2,4150.3 9984.9,4150.8 9985.9,4150.9 9986.1,4150.3 9985.7,4148.8 9984.3,4146.4 9983.5,4146.1 9982.6,4146.3 9982.0,4146.2 9981.8,4144.9 9982.3,4143.5 9983.9,4142.1 9984.3,4140.7 9982.2,4137.5 9981.7,4135.5 9983.6,4134.1 9981.8,4131.1 9982.4,4130.0 9982.0,4128.9 9981.4,4127.9 9981.5,4127.0 9982.8,4125.5 9983.3,4124.7 9983.6,4123.5"/>
      <polyline class="ne_10m_rivers_lake_centerlines_scale_rank" id="Huang" points="9990.2,4252.4 9989.2,4248.6 9990.1,4246.3 9990.1,4244.4 9989.2,4240.2 9989.9,4231.4 9990.0,4231.1 9990.3,4230.7 9990.5,4230.3 9990.5,4228.2 9990.5,4228.0 9990.6,4226.8 9990.4,4225.8 9990.6,4225.1 9991.5,4224.9 9993.4,4224.5 9994.9,4223.7 9996.2,4222.5 9997.3,4221.1 10003.1,4209.3 10005.0,4207.4 10010.0,4204.9 10011.2,4204.0 10012.1,4201.8 10011.3,4200.4 10007.8,4198.3 10009.8,4196.8 10014.5,4194.3 10015.9,4192.1 10015.3,4191.4 10013.7,4190.2 10013.4,4189.8 10013.3,4188.3 10013.8,4187.1 10014.3,4186.0 10015.2,4182.7 10015.4,4181.3 10014.9,4180.7 10014.2,4180.3 10013.6,4179.2 10011.5,4172.3 10010.8,4171.1 10008.7,4168.9 10007.0,4167.7 10003.1,4167.1 10001.6,4165.4 10001.0,4163.0 10001.3,4161.0 10002.5,4159.8 10004.5,4159.3 10006.2,4158.6 10006.2,4156.9 10004.7,4153.3 10004.6,4152.3 10004.6,4151.7 10004.6,4151.1 10004.2,4150.2 10003.8,4150.0 10002.6,4149.6 10002.3,4149.4 10002.0,4148.8 10001.6,4147.4 10001.4,4146.7 9995.5,4138.7 9992.6,4136.1 9991.8,4134.9 9990.8,4131.6 9990.1,4130.1 9988.9,4129.5 9988.3,4129.0 9987.4,4127.9 9986.5,4126.5 9986.2,4125.4 9985.7,4124.5 9984.4,4123.7 9981.8,4122.7 9981.8,4121.9 9982.5,4121.8 9984.3,4121.2 9982.7,4120.0 9981.0,4120.5 9979.3,4121.3 9977.8,4120.8 9977.8,4119.6 9978.8,4118.3 9980.0,4117.1 9980.9,4116.7 9981.9,4115.2 9981.4,4111.9 9979.8,4108.5 9977.5,4106.7 9978.1,4105.3 9980.3,4103.4 9981.2,4102.1 9980.6,4100.7 9980.9,4099.9 9981.5,4099.2 9981.8,4098.3 9981.6,4097.1 9981.1,4096.1 9980.0,4094.5 9979.6,4094.4 9979.0,4094.4 9978.3,4094.3 9978.1,4093.8 9978.4,4093.2 9979.5,4092.7 9980.0,4092.2 9980.2,4092.2 9981.8,4091.4 9981.3,4091.4 9981.4,4090.5 9981.7,4089.4 9981.8,4089.2 9983.8,4090.1 9983.9,4088.4 9983.1,4085.9 9982.2,4084.6 9981.2,4084.9 9980.3,4085.3 9979.6,4085.3 9979.3,4084.2 9979.7,4083.5 9987.7,4073.5 9988.4,4071.8 9989.1,4065.9 9989.2,4064.0 9988.9,4061.4 9987.7,4057.4 9987.1,4052.6 9985.6,4046.4 9985.6,4043.9 9986.6,4039.4 9986.8,4036.9 9986.5,4034.6 9984.8,4030.5 9984.3,4028.1 9984.5,4023.3 9989.1,4005.2 9989.3,4000.1 9989.8,3997.7 9989.9,3996.5 9990.3,3994.9 9991.0,3994.7 9992.1,3994.9 9993.0,3994.6 9994.7,3990.7 9996.1,3975.5 9999.3,3967.2 10000.1,3962.7 9998.6,3957.9 9995.9,3955.0 9994.3,3952.8 9994.6,3951.8 9995.0,3950.8 9994.6,3948.6 9994.0,3946.3 9993.6,3945.0 9992.7,3943.8 9991.4,3942.6 9990.1,3941.6 9988.9,3941.2 9986.4,3935.8 9985.6,3934.4"/>
      <polyline class="ne_10m_rivers_lake_centerlines_scale_rank" id="Huang" points="9985.6,3934.4 9984.3,3933.5 9983.6,3932.1 9983.1,3930.4 9982.5,3928.9 9981.8,3928.1 9977.8,3924.6 9976.4,3922.7 9974.4,3918.2 9973.6,3912.8 9972.7,3910.2 9972.1,3906.3 9970.5,3901.8 9969.8,3897.3 9968.4,3891.7 9967.5,3890.0 9968.6,3886.5 9968.7,3883.0 9967.8,3879.6 9966.0,3876.7 9965.5,3874.1 9965.9,3864.9 9966.9,3858.7 9968.5,3855.8"/>
      <polyline class="ne_10m_rivers_lake_centerlines_scale_rank" id="Huang" points="10381.4,3898.4 10382.3,3900.4 10382.2,3905.3 10383.9,3909.6 10383.4,3911.8 10382.7,3913.9 10382.6,3916.0 10383.8,3917.2 10388.2,3919.3 10389.8,3919.7 10390.8,3920.5 10394.4,3925.9 10396.3,3927.9 10396.9,3928.9 10398.0,3932.3 10398.4,3933.2 10400.9,3937.0 10402.2,3938.5 10404.4,3939.6 10407.1,3940.0 10408.0,3940.5 10408.7,3941.2 10409.1,3941.9 10409.7,3942.5 10410.8,3942.7 10414.7,3942.3 10416.5,3942.5 10418.6,3943.4 10420.1,3944.7 10423.8,3949.1 10424.7,3949.5 10425.8,3949.7 10426.8,3950.2 10427.2,3951.4 10427.0,3952.5 10426.1,3954.4 10426.0,3955.7 10426.9,3958.0 10430.7,3958.2 10431.6,3959.9 10431.6,3962.6 10431.8,3964.7 10432.5,3966.4 10434.1,3967.8 10438.3,3970.0 10440.5,3971.7 10441.5,3973.6 10441.5,3975.9 10441.6,3976.6 10444.6,3976.3 10448.2,3976.6 10451.9,3977.6 10455.3,3979.3 10457.6,3981.6 10462.1,3988.6 10464.9,3990.7 10468.4,3991.2"/>
      <polyline class="ne_10m_rivers_lake_centerlines_scale_rank" id="Huang" points="9968.5,3855.8 9971.0,3854.0 9974.4,3853.4 9977.3,3853.6 9978.1,3853.4 9979.1,3852.6 9979.6,3851.6 9980.2,3850.8 9981.2,3850.4 9982.2,3850.6 9982.6,3851.2 9982.9,3852.0 9983.6,3852.6 9984.6,3853.1 9985.6,3853.3 9987.7,3853.4 9988.5,3853.1 9989.3,3852.4 9990.8,3850.8 9992.0,3849.8 9992.9,3849.9 9993.7,3850.5 9994.9,3851.2 9996.9,3851.7 10002.6,3851.9 10008.1,3854.0 10009.1,3854.6 10009.7,3856.4 10011.3,3857.7 10013.3,3858.5 10023.9,3859.0 10027.5,3861.2 10026.4,3866.4 10028.4,3866.7 10032.1,3864.7 10033.6,3865.2 10035.1,3867.0 10036.8,3868.1 10044.4,3870.4 10045.7,3871.5 10047.0,3876.1 10048.7,3876.4 10052.4,3874.8 10053.9,3873.9 10054.6,3873.8 10055.5,3874.0 10056.0,3874.6 10056.2,3875.7 10056.7,3876.6 10057.7,3877.0 10058.8,3876.6 10059.5,3876.0 10060.2,3875.7 10062.3,3877.4 10063.3,3878.0 10064.4,3878.5 10065.4,3878.6 10066.4,3878.3 10068.2,3876.8 10069.1,3876.3 10070.1,3876.5 10072.6,3877.9 10074.7,3878.1 10084.9,3881.0 10085.9,3881.6 10086.2,3882.2 10086.8,3884.0 10087.1,3884.7 10087.5,3885.1 10088.5,3885.6 10089.0,3886.2 10089.7,3887.4 10090.7,3890.3 10091.5,3891.5 10092.5,3892.2 10094.9,3893.1 10095.8,3893.8 10095.1,3895.9 10096.2,3897.1 10098.1,3897.6 10099.8,3897.7 10101.4,3898.3 10103.5,3900.9 10104.8,3901.5 10106.5,3901.9 10107.5,3903.0 10108.3,3904.3 10109.4,3905.4 10110.9,3905.9 10114.2,3906.1 10115.6,3906.9 10117.2,3906.2 10121.0,3906.7 10122.7,3905.7 10124.1,3904.4 10128.0,3901.5 10130.1,3899.9 10136.2,3898.8 10138.6,3897.7 10139.5,3896.2 10141.1,3892.9 10142.0,3892.3 10143.2,3892.1 10144.6,3891.5 10145.9,3890.7 10146.6,3890.0 10148.0,3891.5 10148.8,3892.1 10149.7,3892.3 10150.3,3891.9 10150.6,3891.1 10151.0,3890.4 10151.9,3890.0 10154.2,3889.7 10157.5,3887.8 10159.6,3887.0 10167.1,3886.2 10168.3,3885.8 10169.3,3884.8 10191.2,3874.8 10195.3,3873.7 10199.3,3874.0 10207.4,3876.3 10219.6,3877.4 10223.4,3878.6 10227.1,3880.6 10228.9,3881.3 10231.2,3881.6 10233.1,3882.4 10234.3,3884.4 10235.8,3888.6 10237.8,3890.5 10239.8,3890.8 10241.7,3890.8 10245.1,3892.7 10247.2,3893.1 10260.3,3892.3 10261.3,3892.7 10262.4,3893.4 10263.6,3893.9 10264.6,3893.5 10268.6,3890.0 10275.5,3885.9 10279.1,3884.5 10282.9,3884.0 10283.9,3884.1 10285.8,3884.6 10286.6,3884.7 10287.7,3884.4 10290.0,3883.2 10290.9,3883.1 10292.7,3882.5 10293.7,3882.4 10294.6,3882.6 10296.2,3883.6 10297.2,3884.0 10298.3,3884.1 10299.4,3884.1 10300.5,3884.2 10301.5,3884.7 10302.3,3885.9 10303.0,3888.4 10303.7,3889.6 10305.5,3890.5 10307.7,3890.1 10311.3,3888.6 10313.4,3888.5 10319.7,3889.3 10321.9,3889.1 10333.1,3884.9 10334.9,3884.7 10336.8,3885.2 10339.9,3887.1 10341.8,3887.7 10343.8,3887.8 10350.3,3885.7 10351.0,3885.4 10351.7,3885.3 10352.9,3885.5 10353.8,3885.8 10355.1,3886.6 10356.0,3887.0 10357.9,3887.0 10360.8,3885.3 10362.8,3884.7 10364.1,3884.8 10364.8,3885.2 10365.3,3885.8 10365.9,3886.2 10366.8,3886.2 10368.9,3886.1 10369.6,3886.2 10371.7,3887.4 10373.0,3889.1 10375.2,3893.1 10376.3,3894.6 10380.8,3898.4"/>
    </g>
    <g class="name rank" id="Xia_capitals">
      <circle class="Xia_capitals" cx="10068.5" cy="3930.5" id="Anyi" r="6"/>
      <circle class="Xia_capitals" cx="10075.2" cy="4007.5" id="Pingyang" r="6"/>
      <circle class="Xia_capitals" cx="10171.9" cy="3916.5" id="Yuan" r="6"/>
      <circle class="Xia_capitals" cx="10207.7" cy="3848.1" id="Zhenxun" r="6"/>
      <circle class="Xia_capitals" cx="10240.0" cy="3832.3" id="Yangcheng" r="6"/>
      <circle class="Xia_capitals" cx="10361.4" cy="4004.1" id="Xihe" r="6"/>
      <circle class="Xia_capitals" cx="10353.9" cy="3880.9" id="Laoqiu" r="6"/>
      <circle class="Xia_capitals" cx="10390.5" cy="3963.4" id="Shangqiu" r="6"/>
      <circle class="Xia_capitals" cx="10171.2" cy="4216.9" id="Jinyang" r="6"/>
    </g>
    <g class="name area" id="Erlitou_sites">
      <circle class="Erlitou_sites" cx="10190.7" cy="3861.8" id="Erlitou" r="5"/>
      <circle class="Erlitou_sites" cx="10207.4" cy="3857.9" id="Shaochai" r="3"/>
      <circle class="Erlitou_sites" cx="10239.3" cy="3868.0" id="Xishicun" r="2"/>
      <circle class="Erlitou_sites" cx="10257.8" cy="3872.7" id="Dashigu" r="3"/>
      <circle class="Erlitou_sites" cx="10171.9" cy="3839.1" id="Nanzhai" r="2"/>
      <circle class="Erlitou_sites" cx="10243.4" cy="3826.3" id="Yucun" r="2"/>
      <circle class="Erlitou_sites" cx="10197.9" cy="3806.4" id="Meishan" r="2"/>
      <circle class="Erlitou_sites" cx="10162.0" cy="3822.8" id="Baiyuan" r="2"/>
      <circle class="Erlitou_sites" cx="10161.7" cy="3848.5" id="Cuoli" r="2"/>
      <circle class="Erlitou_sites" cx="10165.9" cy="3852.2" id="Zaojiaoshu" r="2"/>
      <circle class="Erlitou_sites" cx="10365.0" cy="3840.6" id="Duangang" r="2"/>
      <circle class="Erlitou_sites" cx="10274.7" cy="3865.5" id="Huangweihui" r="3"/>
      <circle class="Erlitou_sites" cx="10268.5" cy="3862.1" id="Luodamiao" r="2"/>
      <circle class="Erlitou_sites" cx="10272.3" cy="3842.6" id="Quliang" r="2"/>
      <circle class="Erlitou_sites" cx="10277.1" cy="3839.0" id="Wangjinglou" r="2"/>
      <circle class="Erlitou_sites" cx="10266.6" cy="3836.6" id="Xinzhai" r="2"/>
      <circle class="Erlitou_sites" cx="10061.2" cy="3923.8" id="Dongxiafeng" r="2"/>
      <circle class="Erlitou_sites" cx="10106.2" cy="3906.8" id="Gucheng" r="2"/>
      <circle class="Erlitou_sites" cx="10046.7" cy="3866.4" id="Qilipu" r="2"/>
      <circle class="Erlitou_sites" cx="10105.5" cy="3858.0" id="Lusi" r="2"/>
      <circle class="Erlitou_sites" cx="10068.6" cy="3863.6" id="Xiyacun" r="2"/>
      <circle class="Erlitou_sites" cx="10101.4" cy="3871.7" id="Zhengyao" r="2"/>
      <circle class="Erlitou_sites" cx="10161.4" cy="3862.9" id="Donggangou" r="2"/>
      <circle class="Erlitou_sites" cx="10154.7" cy="3853.2" id="Dongmagou" r="2"/>
      <circle class="Erlitou_sites" cx="10086.4" cy="3822.4" id="None" r="2"/>
      <circle class="Erlitou_sites" cx="10124.2" cy="3835.7" id="None" r="2"/>
      <circle class="Erlitou_sites" cx="10104.3" cy="3876.4" id="None" r="2"/>
      <circle class="Erlitou_sites" cx="10111.2" cy="3899.5" id="None" r="2"/>
      <circle class="Erlitou_sites" cx="10062.9" cy="3857.5" id="None" r="2"/>
      <circle class="Erlitou_sites" cx="10056.9" cy="3854.5" id="None" r="2"/>
      <circle class="Erlitou_sites" cx="10050.9" cy="3851.8" id="None" r="2"/>
      <circle class="Erlitou_sites" cx="10019.1" cy="3880.7" id="None" r="2"/>
      <circle class="Erlitou_sites" cx="9990.3" cy="3877.7" id="None" r="2"/>
      <circle class="Erlitou_sites" cx="9917.0" cy="3841.7" id="None" r="2"/>
      <circle class="Erlitou_sites" cx="9994.2" cy="3845.5" id="None" r="2"/>
      <circle class="Erlitou_sites" cx="10020.4" cy="3845.3" id="None" r="2"/>
      <circle class="Erlitou_sites" cx="10009.1" cy="3825.4" id="None" r="2"/>
      <circle class="Erlitou_sites" cx="10140.4" cy="3812.8" id="None" r="2"/>
      <circle class="Erlitou_sites" cx="10059.6" cy="3917.8" id="None" r="2"/>
      <circle class="Erlitou_sites" cx="10059.4" cy="3929.5" id="None" r="2"/>
      <circle class="Erlitou_sites" cx="10026.6" cy="3934.7" id="None" r="2"/>
      <circle class="Erlitou_sites" cx="10014.8" cy="3968.3" id="None" r="2"/>
      <circle class="Erlitou_sites" cx="10016.8" cy="3955.4" id="None" r="2"/>
      <circle class="Erlitou_sites" cx="10034.6" cy="3967.2" id="None" r="2"/>
      <circle class="Erlitou_sites" cx="10059.1" cy="3955.4" id="None" r="2"/>
      <circle class="Erlitou_sites" cx="10087.5" cy="3960.1" id="None" r="2"/>
      <circle class="Erlitou_sites" cx="10049.4" cy="3964.4" id="None" r="2"/>
      <circle class="Erlitou_sites" cx="10046.3" cy="3975.1" id="None" r="2"/>
      <circle class="Erlitou_sites" cx="10059.1" cy="3975.1" id="None" r="2"/>
      <circle class="Erlitou_sites" cx="10066.9" cy="3979.2" id="None" r="2"/>
      <circle class="Erlitou_sites" cx="10068.2" cy="3984.6" id="None" r="2"/>
      <circle class="Erlitou_sites" cx="10069.3" cy="3992.8" id="None" r="2"/>
      <circle class="Erlitou_sites" cx="10069.1" cy="3997.4" id="None" r="2"/>
      <circle class="Erlitou_sites" cx="10059.8" cy="3983.0" id="None" r="2"/>
      <circle class="Erlitou_sites" cx="10074.2" cy="3975.3" id="None" r="2"/>
      <circle class="Erlitou_sites" cx="10075.3" cy="3996.9" id="None" r="2"/>
      <circle class="Erlitou_sites" cx="10079.7" cy="3992.0" id="None" r="2"/>
      <circle class="Erlitou_sites" cx="10083.9" cy="4000.2" id="None" r="2"/>
      <circle class="Erlitou_sites" cx="10084.8" cy="3995.8" id="None" r="2"/>
      <circle class="Erlitou_sites" cx="10097.0" cy="3970.4" id="None" r="2"/>
      <circle class="Erlitou_sites" cx="10103.0" cy="3981.1" id="None" r="2"/>
      <circle class="Erlitou_sites" cx="10097.7" cy="3978.3" id="None" r="2"/>
      <circle class="Erlitou_sites" cx="10097.9" cy="3983.0" id="None" r="2"/>
      <circle class="Erlitou_sites" cx="10093.5" cy="3986.0" id="None" r="2"/>
      <circle class="Erlitou_sites" cx="10091.5" cy="3978.9" id="None" r="2"/>
      <circle class="Erlitou_sites" cx="10089.0" cy="3974.3" id="None" r="2"/>
      <circle class="Erlitou_sites" cx="10085.7" cy="3977.3" id="None" r="2"/>
      <circle class="Erlitou_sites" cx="10082.2" cy="3979.4" id="None" r="2"/>
      <circle class="Erlitou_sites" cx="10458.5" cy="3797.6" id="None" r="2"/>
      <circle class="Erlitou_sites" cx="10363.1" cy="3729.5" id="None" r="2"/>
      <circle class="Erlitou_sites" cx="10351.3" cy="3720.9" id="None" r="2"/>
      <circle class="Erlitou_sites" cx="10344.0" cy="3749.9" id="None" r="2"/>
      <circle class="Erlitou_sites" cx="10378.3" cy="3801.0" id="None" r="2"/>
      <circle class="Erlitou_sites" cx="10371.5" cy="3812.1" id="None" r="2"/>
      <circle class="Erlitou_sites" cx="10367.0" cy="3814.2" id="None" r="2"/>
      <circle class="Erlitou_sites" cx="10353.6" cy="3794.5" id="None" r="2"/>
      <circle class="Erlitou_sites" cx="10250.3" cy="3766.1" id="None" r="2"/>
      <circle class="Erlitou_sites" cx="10222.8" cy="3786.2" id="None" r="2"/>
      <circle class="Erlitou_sites" cx="10185.7" cy="3800.7" id="None" r="2"/>
      <circle class="Erlitou_sites" cx="10188.3" cy="3815.9" id="None" r="2"/>
      <circle class="Erlitou_sites" cx="10340.3" cy="3749.8" id="None" r="2"/>
      <circle class="Erlitou_sites" cx="10217.9" cy="3839.5" id="None" r="2"/>
      <circle class="Erlitou_sites" cx="10228.3" cy="3830.1" id="None" r="2"/>
      <circle class="Erlitou_sites" cx="10238.4" cy="3826.2" id="None" r="2"/>
      <circle class="Erlitou_sites" cx="10242.1" cy="3811.3" id="None" r="2"/>
      <circle class="Erlitou_sites" cx="10331.2" cy="3761.6" id="None" r="2"/>
      <circle class="Erlitou_sites" cx="10320.7" cy="3754.3" id="None" r="2"/>
      <circle class="Erlitou_sites" cx="10279.5" cy="3862.1" id="None" r="2"/>
      <circle class="Erlitou_sites" cx="10273.5" cy="3859.5" id="None" r="2"/>
      <circle class="Erlitou_sites" cx="10281.5" cy="3833.8" id="None" r="2"/>
      <circle class="Erlitou_sites" cx="10274.4" cy="3835.2" id="None" r="2"/>
      <circle class="Erlitou_sites" cx="10277.7" cy="3821.2" id="None" r="2"/>
      <circle class="Erlitou_sites" cx="10276.3" cy="3802.3" id="None" r="2"/>
      <circle class="Erlitou_sites" cx="10277.2" cy="3790.9" id="None" r="2"/>
      <circle class="Erlitou_sites" cx="10271.7" cy="3792.3" id="None" r="2"/>
      <circle class="Erlitou_sites" cx="10260.3" cy="3803.4" id="None" r="2"/>
      <circle class="Erlitou_sites" cx="10233.8" cy="3865.9" id="None" r="2"/>
      <circle class="Erlitou_sites" cx="10173.6" cy="3907.9" id="None" r="2"/>
      <circle class="Erlitou_sites" cx="10177.0" cy="3886.3" id="None" r="2"/>
      <circle class="Erlitou_sites" cx="10211.1" cy="3861.1" id="None" r="2"/>
      <circle class="Erlitou_sites" cx="10204.5" cy="3865.2" id="None" r="2"/>
      <circle class="Erlitou_sites" cx="10150.0" cy="3863.8" id="None" r="2"/>
      <circle class="Erlitou_sites" cx="10185.1" cy="3865.1" id="None" r="2"/>
      <circle class="Erlitou_sites" cx="10155.8" cy="3858.3" id="None" r="2"/>
      <circle class="Erlitou_sites" cx="10159.7" cy="3855.0" id="None" r="2"/>
      <circle class="Erlitou_sites" cx="10187.9" cy="3854.3" id="None" r="2"/>
      <circle class="Erlitou_sites" cx="10194.5" cy="3847.3" id="None" r="2"/>
      <circle class="Erlitou_sites" cx="10192.5" cy="3852.1" id="None" r="2"/>
      <circle class="Erlitou_sites" cx="10188.9" cy="3848.3" id="None" r="2"/>
      <circle class="Erlitou_sites" cx="10300.3" cy="3941.2" id="None" r="2"/>
      <circle class="Erlitou_sites" cx="10333.3" cy="4017.8" id="None" r="2"/>
    </g>
  </g>
  <g fill="#f00" font-size="10" text-anchor="middle">
    <text x="395" y="424">1</text>
    <text x="363" y="408">2</text>
    <text x="545" y="292">3</text>
    <text x="327" y="340">4</text>
    <text x="510" y="375">5</text>
    <text x="516.5" y="252">6</text>
  </g>
  <g fill="#f00" font-size="12">
    <text x="335" y="40" text-anchor="start">Jinyang</text>
    <text x="240" y="247" text-anchor="start">Pingyang</text>
    <text x="233" y="325" text-anchor="start">Anyi</text>
    <text x="317" y="338" text-anchor="end">Yuan</text>
    <text x="528" y="253" text-anchor="start">Xihe</text>
    <text x="535" y="293" text-anchor="end">Shangqiu</text>
    <text x="518" y="380" text-anchor="start">Laoqiu</text>
    <text x="370" y="420" text-anchor="end">Zhenxun</text>
    <text x="390" y="410" text-anchor="start">Yangcheng</text>
  </g>
  <g fill="black" font-size="15" text-anchor="end">
    <text x="337" y="384">Erlitou</text>
  </g>
  <g fill="#0978ab" font-style="italic">
    <text x="475" y="352" font-size="20" text-anchor="middle">Yellow River</text>
    <text x="90" y="390" font-size="16" text-anchor="end">Wei River</text>
    <text x="270" y="140" font-size="16" text-anchor="start">Fen River</text>
  </g>
</svg>
