<?xml version="1.0" encoding="UTF-8" standalone="no"?>
<!-- Created with Inkscape (http://www.inkscape.org/) -->

<svg
   xmlns:dc="http://purl.org/dc/elements/1.1/"
   xmlns:cc="http://creativecommons.org/ns#"
   xmlns:rdf="http://www.w3.org/1999/02/22-rdf-syntax-ns#"
   xmlns:svg="http://www.w3.org/2000/svg"
   xmlns="http://www.w3.org/2000/svg"
   xmlns:sodipodi="http://sodipodi.sourceforge.net/DTD/sodipodi-0.dtd"
   xmlns:inkscape="http://www.inkscape.org/namespaces/inkscape"
   id="svg2"
   version="1.1"
   inkscape:version="0.48.4 r9939"
   width="492"
   height="526"
   sodipodi:docname="HANDAN fond.svg">
  <metadata
     id="metadata8">
    <rdf:RDF>
      <cc:Work
         rdf:about="">
        <dc:format>image/svg+xml</dc:format>
        <dc:type
           rdf:resource="http://purl.org/dc/dcmitype/StillImage" />
        <dc:title></dc:title>
      </cc:Work>
    </rdf:RDF>
  </metadata>
  <defs
     id="defs6" />
  <sodipodi:namedview
     pagecolor="#ffffff"
     bordercolor="#666666"
     borderopacity="1"
     objecttolerance="10"
     gridtolerance="10"
     guidetolerance="10"
     inkscape:pageopacity="0"
     inkscape:pageshadow="2"
     inkscape:window-width="1366"
     inkscape:window-height="705"
     id="namedview4"
     showgrid="false"
     inkscape:zoom="0.98479087"
     inkscape:cx="246"
     inkscape:cy="263"
     inkscape:window-x="-8"
     inkscape:window-y="-8"
     inkscape:window-maximized="1"
     inkscape:current-layer="svg2" />
  <path
     style="fill:none;stroke:#0000f6;stroke-width:1.5;stroke-linecap:butt;stroke-linejoin:miter;stroke-miterlimit:4;stroke-opacity:1;stroke-dasharray:none"
     d="m 44.876709,207.91388 c 10.281026,6.7675 22.494861,11.87773 29.834499,22.15351 13.956829,19.54012 39.376562,39.22401 57.046812,70.83104 -0.1172,2.30511 16.32252,14.26843 26.56701,22.61786 4.77247,1.42167 10.19112,3.48953 16.87364,6.82126 14.55003,12.52502 29.10893,17.56856 37.33743,34.46531 5.96213,11.48844 1.34528,24.77194 2.15408,36.26038 0.53405,9.80589 3.17665,15.92184 7.53928,19.02773 8.07588,6.98649 8.04667,4.24685 11.84746,6.10323 8.19616,3.1726 16.29921,6.43833 22.61786,11.48844 20.34265,10.97507 33.79585,23.08276 49.02239,35.4879 m 33.52832,0.99721 c 2.19011,-8.18343 2.76379,-17.67516 -4.28573,-26.43273 -2.59214,-3.2202 -1.2938,-9.12235 7.18027,-8.61633 7.26792,-0.32102 13.24926,-1.33483 8.25732,-8.25731 -1.49594,-5.3851 -1.94086,-12.87227 -6.10324,-12.9245 -2.35427,-0.40729 -3.67131,-1.09485 -3.18517,-2.45237 0.55674,-1.55468 2.87764,-1.6681 4.62123,-2.57382 4.72872,-0.58612 12.58788,3.93533 13.2835,-3.23112 -1.39887,-3.17721 -3.7136,-6.1102 1.79507,-11.12942 5.97061,-2.54024 12.70955,-6.3098 12.9245,0.35901 -0.25858,6.77248 3.58587,0.55201 5.92372,-0.89754 2.15782,-3.5417 1.43145,-6.26182 -3.85939,-11.57818 -12.20289,-11.07016 -6.82083,-15.41963 -1.64016,-14.43616 8.51096,3.53316 18.79699,17.59496 23.7195,6.08909 0.40629,-2.1952 -0.28691,0.35411 1.52581,-8.61633 1.57929,-0.3716 0.36217,-7.13331 -1.97458,-7.53929 -5.34483,-0.92859 -2.79549,-8.95507 5.92373,-7.00077 4.14621,0.26407 10.53911,-1.01416 11.66794,3.59014 2.53704,7.17735 2.61039,0.80439 3.8594,0.89753 3.58769,-3.32976 3.87375,-3.46137 6.99541,-3.09564 2.80821,0.32901 8.57881,0.75235 9.68238,4.88721 0.89762,3.36323 4.8829,5.2878 7.73513,5.2092"
     id="path3769"
     inkscape:connector-curvature="0"
     sodipodi:nodetypes="csccccccccccscccscccccccccscccssc" />
  <path
     style="fill:none;stroke:#6c0000;stroke-width:2;stroke-linecap:butt;stroke-linejoin:miter;stroke-miterlimit:4;stroke-opacity:1;stroke-dasharray:none"
     d="m 144.14399,369.64954 0.17951,95.85666 54.21106,0.35901 1.79507,-34.46531 5.02619,0 -0.89753,-59.41676"
     id="path3763"
     inkscape:connector-curvature="0"
     sodipodi:nodetypes="cccccc" />
  <path
     style="fill:none;stroke:#6c0000;stroke-width:2;stroke-linecap:butt;stroke-linejoin:miter;stroke-miterlimit:4;stroke-opacity:1;stroke-dasharray:none"
     d="m 110.21719,368.393 c 0,0 -29.536028,-1.30114 -54.390563,-1.07705 l -3.41063,93.34356 c 28.47082,0.88754 90.830453,0.71802 90.830453,0.71802"
     id="path3765"
     inkscape:connector-curvature="0"
     sodipodi:nodetypes="cccc" />
  <path
     style="fill:none;stroke:#0000f6;stroke-width:1.5;stroke-linecap:butt;stroke-linejoin:miter;stroke-miterlimit:4;stroke-opacity:1;stroke-dasharray:none"
     d="m 43.261147,211.32452 c 10.281026,6.7675 21.238312,11.1597 28.57795,21.43548 13.956829,19.54012 39.376563,39.22401 57.046813,70.83104 -0.1172,2.30511 16.32252,14.26843 26.56701,22.61786 4.77247,1.42167 10.19112,3.48953 16.87364,6.82126 14.55003,12.52502 29.10893,17.56856 37.33743,34.46531 4.45262,16.77172 0.0586,28.01875 1.07704,38.77348 0.53405,9.80589 4.25369,13.40874 8.61632,16.51463 8.07588,6.98649 8.04667,4.24685 11.84746,6.10323 8.19616,3.1726 16.29921,6.43833 22.61786,11.48844 20.25069,10.92546 32.14528,21.73978 47.49302,34.6668"
     id="path3769-1"
     inkscape:connector-curvature="0"
     sodipodi:nodetypes="csccccccccc" />
  <path
     style="fill:none;stroke:#0000f6;stroke-width:1.5;stroke-linecap:butt;stroke-linejoin:miter;stroke-miterlimit:4;stroke-opacity:1;stroke-dasharray:none"
     d="m 443.48534,369.30276 c -2.62675,0.0742 -6.20645,-0.32254 -7.88523,-3.14326 -3.16171,-5.31237 -4.87896,-5.33367 -7.39379,-6.01239 -3.59751,-0.97091 -5.06683,-1.90601 -7.96558,4.32019 -0.0304,-0.78792 -2.81934,5.71075 -6.72756,-0.0862 -0.11444,-2.03854 -1.28177,-5.27321 -3.09259,-5.44041 -3.01008,-0.27792 -7.0626,-1.39681 -9.05433,-0.44964 -1.5322,0.72864 -0.56905,1.78986 1.40392,4.79589 2.61775,1.32118 0.95378,7.70409 0.42225,8.26351 -1.7039,8.62289 -1.88206,8.55204 -2.2937,10.55013 -4.53338,10.86773 -18.32191,-1.52566 -26.16006,-4.86286 -5.61108,1.04403 17.22071,10.68751 8.61886,22.28678 -5.46256,7.36606 -7.88942,8.37925 -10.63245,6.63655 -1.36242,-0.86557 -2.39119,-10.82957 -7.74122,-5.49323 -1.49132,1.06414 -3.13368,2.6407 -3.04908,4.21704 0.25854,4.81686 6.44063,11.32458 -3.60245,11.12406 -1.18038,1.14249 1.71491,6.00177 2.73924,7.28603 0.74952,0.0399 5.88351,8.76333 3.37058,13.72785 -1.20696,2.38445 -6.7849,-0.38727 -8.01162,-0.47237 -1.75379,-0.12161 -0.28461,3.68816 -1.88691,4.40318 -5.63805,2.51597 -20.3313,-1.35835 -12.98453,8.32901 4.04739,5.33684 3.5689,11.71445 3.47689,16.19086 -0.0435,2.1174 -0.39504,5.60608 -1.79349,9.49414"
     id="path3769-7"
     inkscape:connector-curvature="0"
     sodipodi:nodetypes="cscsssccscssccccssccssc" />
  <path
     style="fill:none;stroke:#0000f6;stroke-width:1.5;stroke-linecap:butt;stroke-linejoin:miter;stroke-miterlimit:4;stroke-opacity:1;stroke-dasharray:none"
     d="m 351.38344,420.64768 c 0.30784,-1.419 0.94125,-3.45681 2.89763,-0.91931 1.86108,2.75188 2.37862,4.68766 4.55146,6.50426 2.22377,2.04188 2.41885,3.74564 2.66554,5.45801 -0.33116,1.45407 1.09344,5.06907 -3.30019,1.52316 -4.02409,-3.33942 -5.82028,-7.20675 -6.81444,-12.56612 z"
     id="path3809"
     inkscape:connector-curvature="0"
     sodipodi:nodetypes="cccccc" />
  <path
     style="fill:none;stroke:#0000f6;stroke-width:1.5;stroke-linecap:butt;stroke-linejoin:miter;stroke-opacity:1;stroke-miterlimit:4;stroke-dasharray:none"
     d="m 44.338189,146.52255 c 12.48666,-0.9022 18.906983,2.44204 26.926026,4.66717 8.436176,3.77672 15.491205,6.69022 20.104765,8.07781 13.4316,6.12595 17.0293,1.80339 23.33589,0.35901 13.39276,-6.15372 19.08901,-4.35219 24.41293,-0.53852 3.28266,2.4318 10.06043,6.94783 12.55222,7.57684 6.45748,0.1065 8.53158,0.31282 13.83714,-1.20753 4.57902,-1.31216 9.52507,0.79596 15.97425,3.32406 12.25379,4.21214 23.85453,9.17778 29.97764,20.46378 3.15456,3.73855 2.337,4.82902 2.87211,6.82126 -0.42651,5.95643 0.99689,8.82969 3.41063,10.05238 l 10.94992,8.43683 c 5.72354,3.96544 10.84953,4.9431 15.6171,4.12865 11.4019,0.50681 18.1536,1.64773 19.02772,3.59014 8.39883,3.63063 12.65449,2.82216 14.36055,-0.71803 4.01287,-3.83569 7.58997,-7.71981 7.35978,-12.02695 1.68784,-10.84098 7.88713,-9.7734 12.92449,-11.48845 6.37027,-0.60594 12.61832,-1.68355 17.77118,-3.94914 6.33872,-2.34768 13.2706,0.16155 13.46301,-15.6171 l -1.25655,-13.82202 c -1.03195,-5.22213 -2.08867,-10.27089 -3.59013,-12.20647 -0.53852,-0.36058 -1.07705,-1.21457 -1.61557,-3.94915 l -0.1795,-21.54082 c 0.22297,-4.87943 3.0486,-4.55354 5.02619,-5.92373 5.12069,-0.40468 10.08316,-0.78299 12.38597,-0.71802 3.35079,-1.03158 6.70159,-1.99073 10.05238,-3.94915 6.24612,-4.34974 5.23708,-11.00794 20.8228,-12.38598 16.96631,-1.08198 29.142,-0.12082 42.0046,1.07704 11.41022,0.15979 16.7615,-0.46906 21.54082,-1.25654 2.84982,-0.97127 6.04244,-1.53467 10.05238,-3.76964"
     id="path3811"
     inkscape:connector-curvature="0"
     sodipodi:nodetypes="ccccccsccccccccccccccccccccccc" />
  <path
     style="fill:none;stroke:#0000f6;stroke-width:1.5;stroke-linecap:butt;stroke-linejoin:miter;stroke-opacity:1;stroke-miterlimit:4;stroke-dasharray:none"
     d="m 44.248439,143.09858 c 12.48666,-0.9022 19.086487,1.72401 27.105527,3.94914 8.43618,3.77672 14.952689,5.79269 19.566249,7.18028 13.431595,6.12595 16.670275,2.34191 22.976865,0.89753 13.39276,-6.15372 20.52507,-4.17269 25.84899,-0.35902 3.28266,2.41994 8.80388,4.54406 11.29567,6.49981 2.14932,1.36304 7.99306,2.10788 13.29862,0.58753 4.57902,-1.31216 9.52507,0.79596 15.97425,3.32406 12.25379,4.21214 27.44467,9.35729 33.56778,20.64329 3.15456,3.73855 3.05502,4.64951 3.59013,6.64175 -0.42651,5.95643 -0.25965,9.72722 2.15409,10.94991 l 9.51386,6.64177 c 5.72354,3.96544 9.23397,5.84063 14.00154,5.02618 11.4019,0.50681 21.38472,2.54526 22.25884,4.48767 3.01363,0.57902 8.88485,3.00167 10.59091,-0.53852 4.01287,-3.83569 5.43589,-5.92474 5.2057,-10.23188 1.68784,-10.84098 10.57973,-12.64551 15.61709,-14.36056 6.37027,-0.60594 12.61832,-0.78602 17.77118,-3.05161 1.13302,-1.45014 11.29602,2.13613 11.48843,-13.64252 l -1.61556,-15.25808 c -1.03195,-5.22213 -2.44768,-8.83483 -3.94914,-10.77041 -0.53852,-0.36058 -0.53853,-2.47112 -1.07705,-5.2057 l -0.35901,-21.36131 c 0.22297,-4.87943 5.38219,-6.34861 7.35978,-7.7188 5.12069,-0.40468 10.08316,-0.78299 12.38597,-0.71802 3.35079,-1.03158 6.70159,-1.99073 10.05238,-3.94915 6.24612,-4.34974 5.23708,-11.00794 20.8228,-12.38597 16.96631,-1.081982 29.142,-0.12082 42.0046,1.07703 11.41022,0.15979 16.7615,-0.46905 21.54082,-1.25653 2.84982,-0.971272 6.04244,-1.534672 10.05238,-3.769642"
     id="path3811-4"
     inkscape:connector-curvature="0"
     sodipodi:nodetypes="ccccccsccccccccccccccccccccccc" />
  <path
     style="fill:none;stroke:#6c0000;stroke-width:2;stroke-linecap:butt;stroke-linejoin:miter;stroke-opacity:1;stroke-miterlimit:4;stroke-dasharray:none"
     d="m 257.6775,136.72573 c -17.69506,3.10607 -44.30294,-2.38236 -48.85628,13.39608 -2.39236,43.59901 -6.47291,86.31643 -8.07705,128.44475 -5.81172,28.83424 4.09269,41.10283 17.5331,49.64429 17.16203,5.29353 31.42799,11.25539 41.76425,18.1241 27.30109,2.28741 53.25604,6.82666 75.84544,5.51604 10.41228,-0.60412 25.72922,-9.879 29.74717,-9.45606 l 44.91626,4.72803 c 2.27034,0.23898 2.4777,-5.50966 2.56102,-9.06205 -2.74342,-19.5168 -0.0834,-41.03526 1.182,-62.05537 l 4.92503,-39.20323"
     id="path2989"
     inkscape:connector-curvature="0"
     sodipodi:nodetypes="cccccsssccc" />
  <path
     style="fill:none;stroke:#6c0000;stroke-width:2;stroke-linecap:butt;stroke-linejoin:miter;stroke-miterlimit:4;stroke-opacity:1;stroke-dasharray:8,4;stroke-dashoffset:0"
     d="m 258.48985,133.95707 c 0.97623,0.69731 1.55584,-39.275589 14.36054,-50.620931 5.72919,-5.076232 26.34564,-2.073218 25.84899,-4.308164 -2.26637,-13.335052 4.78477,-24.479875 11.12942,-35.901368 l 124.21873,1.436055 -15.07857,196.021468"
     id="path3759"
     inkscape:connector-curvature="0"
     sodipodi:nodetypes="cscccc" />
  <rect
     style="opacity:0.6;fill:#6c0000;fill-opacity:1;stroke:none"
     id="rect3851"
     width="20.816603"
     height="23.609074"
     x="94.690155"
     y="420.39383" />
  <rect
     style="fill:none;stroke:#6c0000;stroke-width:2;stroke-miterlimit:4;stroke-opacity:1;stroke-dasharray:none"
     id="rect3851-9"
     width="20.816603"
     height="23.609074"
     x="95.451736"
     y="420.52075" />
  <rect
     style="fill:none;stroke:#6c0000;stroke-width:2;stroke-linejoin:miter;stroke-miterlimit:4;stroke-opacity:1;stroke-dasharray:none;stroke-dashoffset:0"
     id="rect3871"
     width="6.3465252"
     height="6.8542471"
     x="101.79826"
     y="399.83105" />
  <rect
     style="fill:none;stroke:#6c0000;stroke-width:2;stroke-linejoin:miter;stroke-miterlimit:4;stroke-opacity:1;stroke-dasharray:none;stroke-dashoffset:0"
     id="rect3873"
     width="6.8542471"
     height="7.361969"
     x="101.5444"
     y="386.37643" />
  <rect
     style="opacity:0.6;fill:#6c0000;fill-opacity:1;stroke:none"
     id="rect3871-8"
     width="6.3465252"
     height="6.8542471"
     x="101.92519"
     y="399.45026" />
  <rect
     style="opacity:0.6;fill:#6c0000;fill-opacity:1;stroke:none"
     id="rect3871-8-8"
     width="6.3465252"
     height="6.8542471"
     x="101.67133"
     y="386.50339" />
  <rect
     style="fill:none;stroke:#6c0000;stroke-width:2.15356827;stroke-linejoin:miter;stroke-miterlimit:4;stroke-opacity:1;stroke-dasharray:none;stroke-dashoffset:0"
     id="rect3873-2"
     width="6.7006793"
     height="8.7315664"
     x="134.24231"
     y="343.16992" />
  <rect
     style="opacity:0.6;fill:#6c0000;fill-opacity:1;stroke:none"
     id="rect3871-8-8-4"
     width="6.2043324"
     height="8.1293898"
     x="134.36638"
     y="343.3205" />
  <rect
     style="fill:none;stroke:#6c0000;stroke-width:2;stroke-linejoin:miter;stroke-miterlimit:4;stroke-opacity:1;stroke-dasharray:none;stroke-dashoffset:0"
     id="rect3873-5"
     width="8.5101891"
     height="12.318104"
     x="158.72366"
     y="438.47849" />
  <rect
     style="opacity:0.6;fill:#6c0000;fill-opacity:1;stroke:none"
     id="rect3871-8-8-5"
     width="7.8798046"
     height="11.468579"
     x="158.88126"
     y="438.69089" />
  <rect
     style="fill:none;stroke:#6c0000;stroke-width:2.15356827;stroke-linejoin:miter;stroke-miterlimit:4;stroke-opacity:1;stroke-dasharray:none;stroke-dashoffset:0"
     id="rect3873-2-1"
     width="6.7006793"
     height="8.7315664"
     x="159.88228"
     y="392.16513" />
  <rect
     style="opacity:0.6;fill:#6c0000;fill-opacity:1;stroke:none"
     id="rect3871-8-8-4-7"
     width="6.2043324"
     height="8.1293898"
     x="160.00635"
     y="392.3157" />
  <path
     sodipodi:type="arc"
     style="opacity:0.6;fill:#6c0000;fill-opacity:1;stroke:none"
     id="path3982"
     sodipodi:cx="105.98697"
     sodipodi:cy="377.4913"
     sodipodi:rx="3.6809845"
     sodipodi:ry="3.554054"
     d="m 109.66795,377.4913 a 3.6809845,3.554054 0 1 1 -7.36197,0 3.6809845,3.554054 0 1 1 7.36197,0 z"
     transform="translate(-1.015444,0.253861)" />
  <path
     transform="translate(-0.63465256,0.50773213)"
     sodipodi:type="arc"
     style="fill:none;stroke:#6c0000;stroke-width:2;stroke-miterlimit:4;stroke-opacity:1;stroke-dasharray:none"
     id="path3982-1"
     sodipodi:cx="105.98697"
     sodipodi:cy="377.4913"
     sodipodi:rx="3.6809845"
     sodipodi:ry="3.554054"
     d="m 109.66795,377.4913 a 3.6809845,3.554054 0 1 1 -7.36197,0 3.6809845,3.554054 0 1 1 7.36197,0 z" />
  <g
     id="g1052"
     transform="matrix(0.85948584,0,0,0.94064161,-488.0692,21.793156)">
    <polygon
       points="624.507,29.398 616.835,58 623,58 623,81 626,81 626,58 632.165,58 "
       id="polygon1054"
       style="fill:#1b1b1b" />
  </g>
  <text
     xml:space="preserve"
     style="font-size:20px;font-style:normal;font-weight:normal;line-height:125%;letter-spacing:0px;word-spacing:0px;fill:#000000;fill-opacity:1;stroke:none;font-family:Sans"
     x="44.891739"
     y="41.276268"
     id="text4045"
     sodipodi:linespacing="125%"
     transform="scale(0.95588859,1.046147)"><tspan
       sodipodi:role="line"
       id="tspan4047"
       style="font-size:16.00000015px"
       x="44.891739"
       y="41.276268">N</tspan></text>
  <path
     style="fill:none;stroke:#6c0000;stroke-width:2;stroke-linecap:butt;stroke-linejoin:miter;stroke-opacity:1;stroke-miterlimit:4;stroke-dasharray:none"
     d="m 116.98637,270.94404 c -7.30318,18.63434 -5.79525,97.66214 -5.79525,97.66214 l 93.42085,2.53861 c 0,0 0.14908,-31.1721 -5.43623,-47.10024 -1.16722,-3.32866 -9.07105,-1.55744 -9.13372,-5.34384 -0.20684,-12.49693 6.67612,-40.46905 6.4464,-40.46905 -7.54337,-2.95687 -17.08121,-4.91652 -25.62192,-7.37472 0,0 -37.21269,-2.21443 -53.88013,0.0871 z"
     id="path3761"
     inkscape:connector-curvature="0"
     sodipodi:nodetypes="cccssccc" />
  <text
     xml:space="preserve"
     style="font-size:16px;font-style:normal;font-weight:normal;line-height:125%;letter-spacing:0px;word-spacing:0px;fill:#0000f6;fill-opacity:1;stroke:none;font-family:Sans"
     x="-92.692818"
     y="565.63593"
     id="text4045-1-4-2"
     sodipodi:linespacing="125%"
     transform="matrix(0.63466295,-0.77278907,0.77278907,0.63466295,0,0)"><tspan
       sodipodi:role="line"
       id="tspan4047-7-0-45"
       style="font-size:16px;font-style:oblique;fill:#0000f6;fill-opacity:1;-inkscape-font-specification:Sans Oblique"
       x="-92.692818"
       y="565.63593">R. Fuyang</tspan></text>
  <text
     xml:space="preserve"
     style="font-size:16px;font-style:normal;font-weight:normal;line-height:125%;letter-spacing:0px;word-spacing:0px;fill:#0000f6;fill-opacity:1;stroke:none;font-family:Sans"
     x="390.60922"
     y="210.05914"
     id="text4045-1-4-2-2"
     sodipodi:linespacing="125%"
     transform="matrix(0.81420364,0.64592762,-0.38459487,0.92308547,0,0)"
     inkscape:transform-center-y="15.997348"
     inkscape:transform-center-x="-0.371391"><tspan
       sodipodi:role="line"
       id="tspan4047-7-0-45-7"
       style="font-size:16px;font-style:oblique;fill:#0000f6;fill-opacity:1;-inkscape-font-specification:Sans Oblique"
       x="390.60922"
       y="210.05914">R. Du</tspan></text>
  <text
     xml:space="preserve"
     style="font-size:16px;font-style:normal;font-weight:normal;line-height:125%;letter-spacing:0px;word-spacing:0px;fill:#0000f6;fill-opacity:1;stroke:none;font-family:Sans"
     x="93.595108"
     y="141.63278"
     id="text4045-1-4-2-6"
     sodipodi:linespacing="125%"
     transform="matrix(0.95580103,0.29401428,-0.29401428,0.95580103,0,0)"><tspan
       sodipodi:role="line"
       id="tspan4047-7-0-45-1"
       style="font-size:16px;font-style:oblique;fill:#0000f6;fill-opacity:1;-inkscape-font-specification:Sans Oblique"
       x="93.595108"
       y="141.63278">R. Qin</tspan></text>
  <text
     xml:space="preserve"
     style="font-size:16px;font-style:normal;font-weight:normal;line-height:125%;letter-spacing:0px;word-spacing:0px;fill:#000000;fill-opacity:1;stroke:none;font-family:Sans;-inkscape-font-specification:Sans"
     x="77.326187"
     y="436.61743"
     id="text4010-4"
     sodipodi:linespacing="125%"><tspan
       sodipodi:role="line"
       id="tspan4012-2"
       x="77.326187"
       y="436.61743">Longtai</tspan></text>
  <text
     xml:space="preserve"
     style="font-size:16px;font-style:normal;font-weight:normal;line-height:125%;letter-spacing:0px;word-spacing:0px;fill:#000000;fill-opacity:1;stroke:none;font-family:Sans;-inkscape-font-specification:Sans"
     x="431.66058"
     y="127.92713"
     id="text4010-4-3"
     sodipodi:linespacing="125%"><tspan
       sodipodi:role="line"
       id="tspan4012-2-2"
       x="431.66058"
       y="127.92713">Congtai</tspan></text>
  <text
     xml:space="preserve"
     style="font-size:16px;font-style:oblique;font-weight:normal;line-height:125%;letter-spacing:0px;word-spacing:0px;fill:#000000;fill-opacity:1;stroke:none;font-family:Sans;-inkscape-font-specification:Sans Oblique"
     x="341.16086"
     y="301.66574"
     id="text4010-4-3-2"
     sodipodi:linespacing="125%"><tspan
       sodipodi:role="line"
       id="tspan4012-2-2-1"
       x="341.16086"
       y="301.66574">C</tspan></text>
  <text
     xml:space="preserve"
     style="font-size:16px;font-style:oblique;font-weight:normal;line-height:125%;letter-spacing:0px;word-spacing:0px;fill:#000000;fill-opacity:1;stroke:none;font-family:Sans;-inkscape-font-specification:Sans Oblique"
     x="339.69608"
     y="248.41768"
     id="text4010-4-3-2-6"
     sodipodi:linespacing="125%"><tspan
       sodipodi:role="line"
       id="tspan4012-2-2-1-8"
       x="339.69608"
       y="248.41768">C</tspan></text>
  <text
     xml:space="preserve"
     style="font-size:16px;font-style:oblique;font-weight:normal;line-height:125%;letter-spacing:0px;word-spacing:0px;fill:#000000;fill-opacity:1;stroke:none;font-family:Sans;-inkscape-font-specification:Sans Oblique"
     x="423.97797"
     y="256.54126"
     id="text4010-4-3-2-5"
     sodipodi:linespacing="125%"><tspan
       sodipodi:role="line"
       id="tspan4012-2-2-1-7"
       x="423.97797"
       y="256.54126">C</tspan></text>
  <text
     xml:space="preserve"
     style="font-size:16px;font-style:oblique;font-weight:normal;line-height:125%;letter-spacing:0px;word-spacing:0px;fill:#000000;fill-opacity:1;stroke:none;font-family:Sans;-inkscape-font-specification:Sans Oblique"
     x="341.72699"
     y="287.00455"
     id="text4010-4-3-2-61"
     sodipodi:linespacing="125%"><tspan
       sodipodi:role="line"
       id="tspan4012-2-2-1-89"
       x="341.72699"
       y="287.00455">C</tspan></text>
  <text
     xml:space="preserve"
     style="font-size:16px;font-style:oblique;font-weight:normal;line-height:125%;letter-spacing:0px;word-spacing:0px;fill:#000000;fill-opacity:1;stroke:none;font-family:Sans;-inkscape-font-specification:Sans Oblique"
     x="342.74243"
     y="271.77289"
     id="text4010-4-3-2-2"
     sodipodi:linespacing="125%"><tspan
       sodipodi:role="line"
       id="tspan4012-2-2-1-79"
       x="342.74243"
       y="271.77289">F</tspan></text>
  <text
     xml:space="preserve"
     style="font-size:16px;font-style:oblique;font-weight:normal;line-height:125%;letter-spacing:0px;word-spacing:0px;fill:#000000;fill-opacity:1;stroke:none;font-family:Sans;-inkscape-font-specification:Sans Oblique"
     x="320.31299"
     y="280.9119"
     id="text4010-4-3-2-2-5"
     sodipodi:linespacing="125%"><tspan
       sodipodi:role="line"
       id="tspan4012-2-2-1-79-4"
       x="320.31299"
       y="280.9119">F</tspan></text>
  <text
     xml:space="preserve"
     style="font-size:16px;font-style:oblique;font-weight:normal;line-height:125%;letter-spacing:0px;word-spacing:0px;fill:#000000;fill-opacity:1;stroke:none;font-family:Sans;-inkscape-font-specification:Sans Oblique"
     x="379.20874"
     y="272.78833"
     id="text4010-4-3-2-2-3"
     sodipodi:linespacing="125%"><tspan
       sodipodi:role="line"
       id="tspan4012-2-2-1-79-1"
       x="379.20874"
       y="272.78833">F</tspan></text>
  <text
     xml:space="preserve"
     style="font-size:16px;font-style:oblique;font-weight:normal;line-height:125%;letter-spacing:0px;word-spacing:0px;fill:#000000;fill-opacity:1;stroke:none;font-family:Sans;-inkscape-font-specification:Sans Oblique"
     x="363.97708"
     y="252.47948"
     id="text4010-4-3-2-2-2"
     sodipodi:linespacing="125%"><tspan
       sodipodi:role="line"
       id="tspan4012-2-2-1-79-3"
       x="363.97708"
       y="252.47948">O</tspan></text>
  <text
     xml:space="preserve"
     style="font-size:16px;font-style:oblique;font-weight:normal;line-height:125%;letter-spacing:0px;word-spacing:0px;fill:#000000;fill-opacity:1;stroke:none;font-family:Sans;-inkscape-font-specification:Sans Oblique"
     x="361.9462"
     y="189.52194"
     id="text4010-4-3-2-2-34"
     sodipodi:linespacing="125%"><tspan
       sodipodi:role="line"
       id="tspan4012-2-2-1-79-11"
       x="361.9462"
       y="189.52194">P</tspan></text>
  <text
     xml:space="preserve"
     style="font-size:12px;font-style:normal;font-weight:normal;line-height:125%;letter-spacing:0px;word-spacing:0px;fill:#000000;fill-opacity:1;stroke:none;font-family:Sans"
     x="116.34552"
     y="34.88763"
     id="text4286"
     sodipodi:linespacing="125%"><tspan
       sodipodi:role="line"
       id="tspan4288"
       x="116.34552"
       y="34.88763">Légende ateliers : </tspan><tspan
       sodipodi:role="line"
       id="tspan4290"
       x="116.34552"
       y="49.923698"
       style="font-style:oblique;-inkscape-font-specification:Sans Oblique">C <tspan
   style="font-style:normal;-inkscape-font-specification:Sans"
   id="tspan4380">Céramique </tspan></tspan><tspan
       sodipodi:role="line"
       x="116.34552"
       y="64.923698"
       id="tspan4292"
       style="font-style:oblique;-inkscape-font-specification:Sans Oblique">F <tspan
   style="font-style:normal;-inkscape-font-specification:Sans"
   id="tspan4382">Fer </tspan></tspan><tspan
       sodipodi:role="line"
       x="116.34552"
       y="79.923698"
       id="tspan4294"
       style="font-style:oblique;-inkscape-font-specification:Sans Oblique">O <tspan
   style="font-style:normal;-inkscape-font-specification:Sans"
   id="tspan4384">Os </tspan></tspan><tspan
       sodipodi:role="line"
       x="116.34552"
       y="94.923698"
       id="tspan4296"
       style="font-style:oblique;-inkscape-font-specification:Sans Oblique">P <tspan
   style="font-style:normal;-inkscape-font-specification:Sans"
   id="tspan4386">Pierre</tspan></tspan></text>
  <text
     xml:space="preserve"
     style="font-size:18px;font-style:normal;font-weight:normal;line-height:125%;letter-spacing:0px;word-spacing:0px;fill:#000000;fill-opacity:1;stroke:none;font-family:Sans;-inkscape-font-specification:Sans"
     x="24.674858"
     y="482.25378"
     id="text4010"
     sodipodi:linespacing="125%"><tspan
       sodipodi:role="line"
       id="tspan4012"
       x="24.674858"
       y="482.25378">Ville royale Zhao</tspan></text>
  <path
     style="fill:none;stroke:#000000;stroke-width:2;stroke-linecap:butt;stroke-linejoin:miter;stroke-miterlimit:4;stroke-opacity:1;stroke-dasharray:none"
     d="m 326.26252,497.47426 84.0092,0"
     id="path4304"
     inkscape:connector-curvature="0" />
  <path
     style="fill:none;stroke:#000000;stroke-width:1px;stroke-linecap:butt;stroke-linejoin:miter;stroke-opacity:1"
     d="m 325.83061,494.77509 0,5.33108"
     id="path4306"
     inkscape:connector-curvature="0" />
  <path
     style="fill:none;stroke:#000000;stroke-width:1px;stroke-linecap:butt;stroke-linejoin:miter;stroke-opacity:1"
     d="m 410.36712,494.73501 0,5.33108"
     id="path4306-3"
     inkscape:connector-curvature="0" />
  <text
     xml:space="preserve"
     style="font-size:16px;font-style:normal;font-weight:normal;line-height:125%;letter-spacing:0px;word-spacing:0px;fill:#000000;fill-opacity:1;stroke:none;font-family:Sans"
     x="321.37958"
     y="490.58337"
     id="text4334"
     sodipodi:linespacing="125%"><tspan
       sodipodi:role="line"
       id="tspan4336"
       x="321.37958"
       y="490.58337">0</tspan></text>
  <text
     xml:space="preserve"
     style="font-size:16px;font-style:normal;font-weight:normal;line-height:125%;letter-spacing:0px;word-spacing:0px;fill:#000000;fill-opacity:1;stroke:none;font-family:Sans"
     x="395.94904"
     y="490.01913"
     id="text4334-8"
     sodipodi:linespacing="125%"><tspan
       sodipodi:role="line"
       id="tspan4336-7"
       x="395.94904"
       y="490.01913">500 m</tspan></text>
  <text
     xml:space="preserve"
     style="font-size:18px;font-style:normal;font-weight:normal;line-height:125%;letter-spacing:0px;word-spacing:0px;fill:#000000;fill-opacity:1;stroke:none;font-family:Sans;-inkscape-font-specification:Sans"
     x="361.40674"
     y="35.517033"
     id="text4010-42"
     sodipodi:linespacing="125%"><tspan
       sodipodi:role="line"
       id="tspan4012-7"
       x="361.40674"
       y="35.517033">Ville Nord</tspan></text>
</svg>
