<?xml version="1.0" encoding="UTF-8" standalone="no"?>
<!-- Created with Inkscape (http://www.inkscape.org/) -->

<svg
   xmlns:dc="http://purl.org/dc/elements/1.1/"
   xmlns:cc="http://creativecommons.org/ns#"
   xmlns:rdf="http://www.w3.org/1999/02/22-rdf-syntax-ns#"
   xmlns:svg="http://www.w3.org/2000/svg"
   xmlns="http://www.w3.org/2000/svg"
   xmlns:sodipodi="http://sodipodi.sourceforge.net/DTD/sodipodi-0.dtd"
   xmlns:inkscape="http://www.inkscape.org/namespaces/inkscape"
   id="svg2"
   version="1.1"
   inkscape:version="0.48.4 r9939"
   width="492"
   height="548"
   sodipodi:docname="LINZI blank.svg">
  <metadata
     id="metadata8">
    <rdf:RDF>
      <cc:Work
         rdf:about="">
        <dc:format>image/svg+xml</dc:format>
        <dc:type
           rdf:resource="http://purl.org/dc/dcmitype/StillImage" />
        <dc:title />
      </cc:Work>
    </rdf:RDF>
  </metadata>
  <defs
     id="defs6" />
  <sodipodi:namedview
     pagecolor="#ffffff"
     bordercolor="#666666"
     borderopacity="1"
     objecttolerance="10"
     gridtolerance="10"
     guidetolerance="10"
     inkscape:pageopacity="0"
     inkscape:pageshadow="2"
     inkscape:window-width="1366"
     inkscape:window-height="705"
     id="namedview4"
     showgrid="false"
     inkscape:zoom="0.94525547"
     inkscape:cx="246"
     inkscape:cy="274"
     inkscape:window-x="-8"
     inkscape:window-y="-8"
     inkscape:window-maximized="1"
     inkscape:current-layer="svg2" />
  <path
     style="fill:#ffccaa;stroke:#6e2c00;stroke-width:2;stroke-linecap:butt;stroke-linejoin:miter;stroke-miterlimit:4;stroke-opacity:1;stroke-dasharray:2, 2;stroke-dashoffset:0"
     d="m 299.65444,148.63707 c 0.19669,-2.55798 -1.35319,-0.60791 0.79344,-8.19885 1.71587,-1.94993 -1.0593,-4.24533 8.99227,-5.55405 l 6.61197,1.58687 -4.6726,15.99281 z"
     id="path3823"
     inkscape:connector-curvature="0"
     sodipodi:nodetypes="cccc" />
  <path
     style="fill:#ffccaa;stroke:#6e2c00;stroke-width:2;stroke-linecap:butt;stroke-linejoin:miter;stroke-opacity:1;stroke-miterlimit:4;stroke-dasharray:2, 2;stroke-dashoffset:0"
     d="m 384.02317,212.64093 0.79343,-21.68726 c -0.72857,-2.64479 0.98218,-5.28958 -4.23166,-7.93437 l -8.7278,-2.64478 c -5.92278,-2.36037 -7.73039,1.45203 -9.52123,5.28957 L 357.04633,205.5 c -2.64152,9.86653 -1.54923,11.33197 -1.58687,15.33977 0.46063,5.59639 2.89527,6.42924 5.81853,6.08301 l 12.69498,-0.26448 0.26448,0.26448"
     id="path3827"
     inkscape:connector-curvature="0"
     sodipodi:nodetypes="cccccccccc" />
  <path
     style="fill:#ffcdab;fill-opacity:1;stroke:#6e2c00;stroke-width:2;stroke-linecap:butt;stroke-linejoin:miter;stroke-miterlimit:4;stroke-opacity:1;stroke-dasharray:2, 2;stroke-dashoffset:0"
     d="m 304.41506,205.76448 -1.3224,4.23166 c -4.44413,5.84924 -5.91677,3.37828 -6.87644,-0.52896 l -7.14093,0.26448 0.26448,8.7278 c 0.12346,5.2807 3.0613,6.33982 7.4054,5.28957 l 16.13321,0 c 5.01662,-0.005 6.92006,-1.87808 8.46332,-3.96718 2.70975,-2.09124 0.34267,-2.65943 -3.96719,-2.64478 -4.67988,2.47589 -3.23461,-0.61233 -3.25121,-2.79972 l -0.72212,-9.45307 c -3.15069,-0.75729 -6.9864,-4.57779 -8.98612,0.8802 z"
     id="path3829"
     inkscape:connector-curvature="0"
     sodipodi:nodetypes="cccccccccccc" />
  <path
     style="fill:#ffccaa;stroke:#6e2c00;stroke-width:2;stroke-linecap:butt;stroke-linejoin:miter;stroke-opacity:1;stroke-miterlimit:4;stroke-dasharray:2, 2;stroke-dashoffset:0"
     d="m 327.42471,230.62548 c -3.23307,0.51824 -4.38432,4.50619 -5.55405,8.46332 l -2.64479,14.01738 c 1.06261,2.88072 -0.26564,7.4692 5.28957,7.14092 l 10.84363,0.26448 c 3.1539,-1.33727 5.9756,-2.92371 6.34749,-6.34749 l 4.76062,-16.1332 c 1.06887,-2.7366 -0.011,-4.75696 -3.17374,-6.08301 z"
     id="path3835"
     inkscape:connector-curvature="0"
     sodipodi:nodetypes="ccccccccc" />
  <path
     style="fill:#6c0000;stroke:none;stroke-width:1px;stroke-linecap:butt;stroke-linejoin:miter;stroke-opacity:1;fill-opacity:1;opacity:0.6"
     d="m 98.926037,318.13037 -2.873371,45.97393 24.218404,0.82096 8.20963,-46.79489 z"
     id="path2991"
     inkscape:connector-curvature="0"
     sodipodi:nodetypes="ccccc" />
  <path
     style="fill:#e6e6e6;stroke:#6c5454;stroke-width:2;stroke-linecap:butt;stroke-linejoin:miter;stroke-opacity:1;stroke-miterlimit:4;stroke-dasharray:2, 2;stroke-dashoffset:0"
     d="m 224.32813,405.97341 37.14857,5.95198 0.41048,-8.00439 c 1.01831,-1.29986 6.40773,-2.59971 9.85156,-3.89957 2.58961,-2.95844 6.9206,-6.41443 13.34065,-10.46728 0.47426,-1.28323 1.11092,-2.34993 0,-5.74674 l -16.41926,-25.86034 c -1.73768,-1.861 -3.66809,-2.3729 -5.95198,-0.41048 -16.53338,15.23604 -13.41789,13.00642 -20.1136,19.49787 -1.03895,0.53686 -6.86706,4.49456 -11.49348,7.59391 -2.96107,1.70391 -5.41663,3.57632 -5.13102,6.36246 z"
     id="path2993"
     inkscape:connector-curvature="0"
     sodipodi:nodetypes="cccccccccccc" />
  <path
     style="fill:#e6e6e6;stroke:#6c5454;stroke-width:2;stroke-linecap:butt;stroke-linejoin:miter;stroke-opacity:1;stroke-miterlimit:4;stroke-dasharray:2, 2;stroke-dashoffset:0"
     d="m 217.34994,198.47502 c -7.45915,1.21534 -6.70627,3.69406 -7.38866,5.95198 l 0.61572,12.31445 -3.69433,6.15722 c -3.24807,11.55277 -7.41912,25.71536 -3.28385,37.35381 -0.33943,6.51978 1.53461,5.65316 3.89957,6.97819 8.91972,1.42362 17.72849,1.07095 26.68129,0.61572 4.33606,-2.13106 8.68947,-4.23811 9.0306,-11.90396 -0.27611,-3.58654 -0.95613,-7.72845 -5.5415,-17.24022 -0.65148,-3.59348 -1.36561,-7.19959 0.61572,-10.26204 2.24189,-4.36617 4.826,-8.5042 3.89957,-14.98258 0.0999,-3.22543 -2.83797,-6.14708 -8.20963,-8.82535 -5.5415,-2.05241 -4.91,-3.33319 -16.6245,-6.15722 z"
     id="path2995"
     inkscape:connector-curvature="0"
     sodipodi:nodetypes="ccccccccccccc" />
  <path
     style="fill:#ffebcd;stroke:#ff9a01;stroke-width:2;stroke-linecap:butt;stroke-linejoin:miter;stroke-opacity:1;stroke-miterlimit:4;stroke-dasharray:2, 2;stroke-dashoffset:0;fill-opacity:1"
     d="m 111.65096,451.12637 c -2.52174,-1.90445 -4.08206,-4.40979 -2.25765,-9.03059 0.81533,-1.84101 -0.62875,-6.42459 8.62012,-3.48909 5.2852,1.52448 4.64205,8.21025 2.87336,11.69872 -2.01956,3.98329 -5.83731,1.13339 -9.23583,0.82096 z"
     id="path2997"
     inkscape:connector-curvature="0"
     sodipodi:nodetypes="cccsc" />
  <path
     style="fill:#feffcd;stroke:#6c6e00;stroke-width:2;stroke-linecap:butt;stroke-linejoin:miter;stroke-opacity:1;stroke-miterlimit:4;stroke-dasharray:2, 2;stroke-dashoffset:0;fill-opacity:1"
     d="m 127.04402,420.5455 c -3.46894,1.26143 -3.46946,7.63542 -3.08726,9.56555 0.0524,0.26437 1.31907,0.39527 1.65057,0.28604 1.93503,0.90882 8.67929,0.6749 8.20963,0.20524 2.81732,-3.10039 5.45709,-6.21557 1.84717,-9.85156 -2.55325,-0.86872 -5.00884,-1.98157 -8.62011,-0.20524 z"
     id="path2999"
     inkscape:connector-curvature="0"
     sodipodi:nodetypes="csccccc" />
  <path
     style="fill:#feffcd;stroke:#6c6e00;stroke-width:2;stroke-linecap:butt;stroke-linejoin:miter;stroke-opacity:1;fill-opacity:1;stroke-miterlimit:4;stroke-dasharray:2, 2;stroke-dashoffset:0"
     d="m 95.231703,410.4887 c -3.307877,4.69633 -1.3985,6.54688 1.231445,8.00439 9.010832,1.35291 11.124672,0.83096 14.366852,0.61573 3.46708,-1.49947 4.6529,-4.05184 1.0262,-8.82536 -5.86668,-1.06973 -11.81738,-2.43352 -16.624497,0.20524 z"
     id="path3001"
     inkscape:connector-curvature="0"
     sodipodi:nodetypes="ccccc" />
  <path
     style="fill:#e6e6e6;stroke:#6c5454;stroke-width:2;stroke-linecap:butt;stroke-linejoin:miter;stroke-opacity:1;stroke-miterlimit:4;stroke-dasharray:2, 2;stroke-dashoffset:0"
     d="m 84.764426,381.96024 c -4.273581,6.46282 -2.288586,7.8985 -1.641926,8.20963 2.728797,3.55312 4.955597,2.69562 7.183426,1.84717 1.539694,-1.52738 1.502296,-5.15756 1.436685,-8.82535 -3.06489,-4.47404 -4.970894,-2.5742 -6.978185,-1.23145 z"
     id="path3003"
     inkscape:connector-curvature="0"
     sodipodi:nodetypes="ccccc" />
  <path
     style="fill:#6c0000;stroke:none;stroke-width:1px;stroke-linecap:butt;stroke-linejoin:miter;stroke-opacity:1;fill-opacity:1;opacity:0.6"
     d="m 155.36724,321.41422 -0.82096,8.20963 10.26203,0.61573 0.61573,-8.82536 z"
     id="path3005"
     inkscape:connector-curvature="0" />
  <path
     style="fill:#f5cdff;stroke:#660080;stroke-width:2;stroke-linecap:butt;stroke-linejoin:miter;stroke-opacity:1;stroke-miterlimit:4;stroke-dasharray:2, 2;stroke-dashoffset:0;fill-opacity:1"
     d="m 289.38944,88.671224 c -3.84078,4.085217 -2.80683,6.545526 -1.84716,9.030593 3.75464,2.563403 5.10964,1.12741 7.38866,1.231444 3.25465,-2.531302 2.73903,-5.062605 2.25765,-7.593907 -0.78751,-1.563738 -0.79812,-3.416574 -7.79915,-2.66813 z"
     id="path3007"
     inkscape:connector-curvature="0"
     sodipodi:nodetypes="ccccc" />
  <path
     style="fill:#e6e6e6;stroke:#6c5454;stroke-width:2;stroke-linecap:butt;stroke-linejoin:miter;stroke-opacity:1;stroke-miterlimit:4;stroke-dasharray:2, 2;stroke-dashoffset:0"
     d="m 190.87389,171.79372 c -2.74962,1.29986 -3.78066,2.59972 -3.28385,3.89958 0.17415,1.11016 -0.85791,3.33653 3.28385,2.46289 1.62858,-0.76644 3.5344,0.32956 4.31005,-3.28386 -0.9191,-3.65754 -2.16087,-2.39656 -4.31005,-3.07861 z"
     id="path3009"
     inkscape:connector-curvature="0"
     sodipodi:nodetypes="ccccc" />
  <path
     style="fill:#e6e6e6;stroke:#6c5454;stroke-width:2;stroke-linecap:butt;stroke-linejoin:miter;stroke-opacity:1;stroke-miterlimit:4;stroke-dasharray:2, 2;stroke-dashoffset:0"
     d="m 171.17078,167.48367 c -2.07034,2.56999 -1.35964,5.98403 -1.23145,5.95198 0.88938,0.62131 1.77875,1.52728 2.66813,0.43538 0.60876,-0.72537 1.00965,-1.66248 1.23145,-4.54019 0.67914,-2.46942 -1.36544,-1.71991 -2.66813,-1.84717 z"
     id="path3011"
     inkscape:connector-curvature="0"
     sodipodi:nodetypes="ccccc" />
  <path
     style="fill:#e6e6e6;stroke:#6c5454;stroke-width:2;stroke-linecap:butt;stroke-linejoin:miter;stroke-opacity:1;stroke-miterlimit:4;stroke-dasharray:2, 2;stroke-dashoffset:0"
     d="m 173.76255,194.65637 c -4.16039,2.14237 -7.77294,4.3562 -3.96718,7.53764 4.59319,1.49134 12.24932,1.70645 13.0917,4.76062 1.89543,1.87325 3.79086,1.44882 5.68629,0.52896 3.39532,-1.78012 2.31686,-2.80628 3.43822,-4.23166 -0.71711,-0.62665 4.56708,-3.75565 -3.30598,-4.3639 -2.64452,0.39049 -2.75838,-0.60902 -4.23166,-1.71911 -1.05614,-2.46443 -3.69172,-3.90687 -10.71139,-2.51255 z"
     id="path3013"
     inkscape:connector-curvature="0"
     sodipodi:nodetypes="cccccccc" />
  <path
     style="fill:#cccccc;stroke:#6c5454;stroke-width:2;stroke-linecap:butt;stroke-linejoin:miter;stroke-opacity:1;stroke-miterlimit:4;stroke-dasharray:2, 2;stroke-dashoffset:0"
     d="m 368.55116,151.01737 c 2.19793,-1.32669 3.92043,-1.60745 4.3639,0.92568 -0.6483,3.49123 -2.08797,4.39202 -3.96718,3.57046 -0.83903,-0.22649 -1.30699,-1.1209 -0.39672,-4.49614 z"
     id="path3017"
     inkscape:connector-curvature="0"
     sodipodi:nodetypes="cccc" />
  <path
     style="fill:#e6e6e6;stroke:#6c5454;stroke-width:2;stroke-linecap:butt;stroke-linejoin:miter;stroke-opacity:1;stroke-miterlimit:4;stroke-dasharray:2, 2;stroke-dashoffset:0"
     d="m 382.17182,212.77317 c -8.08343,4.18758 -5.39186,8.37516 -7.80213,12.56274 -0.35828,1.98762 -2.00624,4.89644 -0.13224,5.28957 1.87537,0.55123 3.49854,0.575 5.0251,0.39672 0.46519,0.69778 4.12134,-5.33226 3.7027,-7.14093 -0.25737,-1.11195 3.15557,-13.0826 -0.79343,-11.1081 z"
     id="path3021"
     inkscape:connector-curvature="0"
     sodipodi:nodetypes="ccccsc" />
  <path
     style="fill:#e6e6e6;stroke:#6c5454;stroke-width:2;stroke-linecap:butt;stroke-linejoin:miter;stroke-opacity:1;stroke-miterlimit:4;stroke-dasharray:2, 2;stroke-dashoffset:0"
     d="m 362.20367,210.78957 c -2.3744,0.48657 -2.56949,1.59579 -2.51255,2.77703 -0.71737,4.27757 1.5646,3.41343 3.17375,3.7027 1.01383,-0.53998 2.02767,-0.0482 3.0415,-2.51254 1.91211,-3.94435 -1.69367,-3.29046 -3.7027,-3.96719 z"
     id="path3025"
     inkscape:connector-curvature="0"
     sodipodi:nodetypes="ccccc" />
  <path
     style="fill:#e6e6e6;stroke:#6c5454;stroke-width:2;stroke-linecap:butt;stroke-linejoin:miter;stroke-opacity:1;stroke-miterlimit:4;stroke-dasharray:2, 2;stroke-dashoffset:0;fill-opacity:1"
     d="m 330.7307,242.79151 c -3.39937,3.73193 -1.63074,4.7076 0.13223,5.68629 3.73081,1.5691 5.17033,0.0137 5.0251,-3.7027 -1.103,-3.8958 -2.64833,-5.46931 -5.15733,-1.98359 z"
     id="path3027"
     inkscape:connector-curvature="0"
     sodipodi:nodetypes="cccc" />
  <path
     style="fill:#e6e6e6;stroke:#6c5454;stroke-width:2;stroke-linecap:butt;stroke-linejoin:miter;stroke-opacity:1;stroke-miterlimit:4;stroke-dasharray:2, 2;stroke-dashoffset:0;fill-opacity:1"
     d="m 315.65541,238.42761 c -1.40031,1.9629 -2.6632,3.86335 -0.26448,4.09942 4.83426,0.0877 3.861,-4.27844 0.26448,-4.09942 z"
     id="path3029"
     inkscape:connector-curvature="0"
     sodipodi:nodetypes="ccc" />
  <path
     style="fill:#e6e6e6;stroke:#6c5454;stroke-width:2;stroke-linecap:butt;stroke-linejoin:miter;stroke-opacity:1;stroke-miterlimit:4;stroke-dasharray:2, 2;stroke-dashoffset:0"
     d="m 276.64479,194.12741 c -4.29822,7.05166 -1.0192,5.98485 -0.92568,8.33108 1.45463,-0.1724 2.90927,1.25732 4.3639,-0.79343 1.45901,-2.96561 3.01012,-5.94723 -3.43822,-7.53765 z"
     id="path3031"
     inkscape:connector-curvature="0"
     sodipodi:nodetypes="cccc" />
  <path
     style="fill:#e6e6e6;stroke:#6c5454;stroke-width:2;stroke-linecap:butt;stroke-linejoin:miter;stroke-opacity:1;stroke-miterlimit:4;stroke-dasharray:2, 2;stroke-dashoffset:0"
     d="m 296.34846,179.58108 c -6.54038,3.08778 1.10264,7.04082 3.57046,6.61197 2.02073,-0.35116 2.91101,-3.59656 0.92568,-6.08301 -1.19799,-0.6274 -2.59595,-0.95486 -4.49614,-0.52896 z"
     id="path3033"
     inkscape:connector-curvature="0"
     sodipodi:nodetypes="cacc" />
  <path
     style="fill:#e6e6e6;stroke:#6c5454;stroke-width:2;stroke-linecap:butt;stroke-linejoin:miter;stroke-miterlimit:4;stroke-opacity:1;stroke-dasharray:2, 2;stroke-dashoffset:0"
     d="m 305.07626,199.68146 c -2.60983,4.52759 -0.66576,5.20188 1.19015,5.95077 1.7859,0.65721 3.68118,0.65811 5.81854,-0.79343 3.70289,-5.87101 0.56082,-7.03611 -7.00869,-5.15734 z"
     id="path3035"
     inkscape:connector-curvature="0"
     sodipodi:nodetypes="cccc" />
  <path
     style="fill:#eed7f4;stroke:#660080;stroke-width:2;stroke-linecap:butt;stroke-linejoin:miter;stroke-opacity:1;stroke-miterlimit:4;stroke-dasharray:2, 2;stroke-dashoffset:0;fill-opacity:1"
     d="m 306.00193,148.7693 c -7.26154,-1.17414 -7.10122,1.94858 -7.93436,4.49614 -0.68472,4.40897 -4.97702,11.22299 2.11583,10.44691 l 11.7693,0.92568 c 3.32218,-1.156 6.22878,2.46719 10.18244,-5.95077 1.47527,-2.69065 0.67718,-4.69929 5.28957,-8.33108 1.29895,-2.60764 6.07743,-0.66511 3.30599,-8.59556 -0.055,-1.87203 -2.37447,-3.461 -8.06661,-4.62838 -3.93463,-1.40616 -7.29538,-1.56889 -9.12451,1.58687 l -2.64479,8.0666 c -0.722,1.00205 -1.41971,2.01322 -4.89286,1.98359 z"
     id="path3039"
     inkscape:connector-curvature="0"
     sodipodi:nodetypes="ccccccccccc" />
  <path
     style="fill:#e6e6e6;stroke:#6c5454;stroke-width:2;stroke-linecap:butt;stroke-linejoin:miter;stroke-opacity:1;stroke-miterlimit:4;stroke-dasharray:2, 2;stroke-dashoffset:0;fill-opacity:1"
     d="m 203.64865,352.02124 c -5.4913,1.67503 -4.15229,3.35006 -0.52896,5.02509 6.52866,1.09279 5.22368,-0.75203 6.61197,-1.58687 3.46407,-6.63781 -2.18274,-4.16475 -6.08301,-3.43822 z"
     id="path3041"
     inkscape:connector-curvature="0"
     sodipodi:nodetypes="cccc" />
  <path
     style="opacity:0.6;fill:#6c0000;fill-opacity:1;stroke:none"
     d="m 177.65703,372.20647 c -2.45703,-5.77015 -16.35418,-3.57661 -22.80884,-3.74061 -3.09221,1.52098 -3.35739,3.8497 -2.99223,6.3585 -0.59891,6.74943 1.83155,7.87287 4.67537,8.22865 6.17148,0.24935 8.54377,2.01839 18.51445,0.74806 -0.0389,-0.34544 -0.0399,-0.71587 -9e-5,-1.10488 -2.45702,-0.73548 -2.22678,-4.87316 -1.48776,-6.86678 0.52248,-1.40944 1.79498,-2.63954 4.0991,-3.62294 z"
     id="path3045"
     inkscape:connector-curvature="0"
     sodipodi:nodetypes="ccccccsc" />
  <path
     style="fill:#ffccaa;stroke:#6e2c00;stroke-width:2;stroke-linecap:butt;stroke-linejoin:miter;stroke-opacity:1;stroke-miterlimit:4;stroke-dasharray:2, 2;stroke-dashoffset:0"
     d="m 279.28958,339.59073 c -7.44294,2.59908 -7.56031,7.86201 -7.40541,13.22394 0.13416,10.0339 4.77074,7.68613 7.40541,10.84363 3.13325,0.143 6.94413,2.31889 7.4054,-5.55405 0,0 -1.11159,-6.16151 0.52896,-8.46332 1.33035,-1.86658 6.34749,-2.64479 6.34749,-2.64479 3.07545,-2.90927 3.43969,-5.81853 -0.52896,-8.7278 -10.13618,0.4408 -11.86064,0.88159 -13.75289,1.32239 z"
     id="path3047"
     inkscape:connector-curvature="0"
     sodipodi:nodetypes="ccccsccc" />
  <path
     style="fill:#ffccaa;stroke:#6e2c00;stroke-width:2;stroke-linecap:butt;stroke-linejoin:miter;stroke-opacity:1;stroke-miterlimit:4;stroke-dasharray:2, 2;stroke-dashoffset:0"
     d="m 299.12548,235.91506 c -8.56991,3.00209 -8.67791,7.5427 -9.78571,11.90154 0.58699,8.18325 0.94117,11.17862 2.64479,12.69498 3.08454,2.74548 7.05277,2.46847 10.57915,1.05792 9.09096,-0.94188 8.48923,-5.40839 10.31467,-8.99228 0.15191,-4.77938 2.83862,-9.13629 -0.79344,-14.54633 -2.8199,-3.70513 -5.9789,-6.73202 -12.95946,-2.11583 z"
     id="path3049"
     inkscape:connector-curvature="0"
     sodipodi:nodetypes="ccscccc" />
  <path
     style="fill:#ffccaa;stroke:#6e2c00;stroke-width:2;stroke-linecap:butt;stroke-linejoin:miter;stroke-opacity:1;stroke-miterlimit:4;stroke-dasharray:2, 2;stroke-dashoffset:0"
     d="m 272.94209,131.71042 c -2.98072,7.11529 -4.40284,9.62694 -3.70271,11.90155 -0.56735,3.5352 -1.25579,8.97239 3.43823,10.57915 6.62816,3.36626 6.64896,0.12515 9.52123,-0.26448 4.44597,-4.2334 1.26385,-10.64625 1.3224,-16.1332 1.01591,-9.74958 -4.69468,-8.06409 -10.57915,-6.08302 z"
     id="path3051"
     inkscape:connector-curvature="0"
     sodipodi:nodetypes="cccccc" />
  <path
     style="fill:#ffccaa;stroke:#6e2c00;stroke-width:2;stroke-linecap:butt;stroke-linejoin:miter;stroke-opacity:1;stroke-miterlimit:4;stroke-dasharray:2, 2;stroke-dashoffset:0"
     d="m 306.00193,99.972973 c -0.85773,9.284927 -3.95115,18.891307 -3.96718,26.976837 -1.12144,5.36368 3.60952,3.89957 6.34749,4.76061 3.4549,0.32445 6.77146,0.39526 6.08301,-6.87644 -1.06651,-5.77558 -1.47648,-14.83382 -1.85135,-24.06757 0.49509,-7.282088 -3.89179,-1.871059 -6.61197,-0.793437 z"
     id="path3821"
     inkscape:connector-curvature="0"
     sodipodi:nodetypes="cccccc" />
  <path
     style="fill:#ffcdab;stroke:#6e2c00;stroke-width:2;stroke-linecap:butt;stroke-linejoin:miter;stroke-opacity:1;stroke-miterlimit:4;stroke-dasharray:2, 2;stroke-dashoffset:0;fill-opacity:1"
     d="m 352.02124,167.94402 c -5.51508,-0.60691 -12.7651,2.25607 -15.07529,-4.76062 l 0.79343,-13.22394 c 0.66894,-2.14652 1.74089,-3.74937 4.23166,-3.43823 l 10.84363,-0.52895 c 7.60588,0.31542 6.42033,5.42616 6.61197,9.78571 l -0.52896,0"
     id="path3825"
     inkscape:connector-curvature="0"
     sodipodi:nodetypes="ccccccc" />
  <path
     style="fill:#ffccaa;stroke:#6e2c00;stroke-width:2;stroke-linecap:butt;stroke-linejoin:miter;stroke-opacity:1;stroke-miterlimit:4;stroke-dasharray:2, 2;stroke-dashoffset:0"
     d="m 294.89382,267.91699 c -3.51445,5.01998 -4.5962,8.99738 -3.17374,11.90154 0.21606,9.59676 3.78729,11.92398 8.19884,12.4305 7.59192,-0.0925 9.09591,-2.39872 8.99228,-5.28957 1.36925,-3.609 2.24247,-8.21003 2.90926,-13.22394 l 0,-6.61197 c -6.17009,-6.06999 -11.40771,-0.9504 -16.92664,0.79344 z"
     id="path3831"
     inkscape:connector-curvature="0"
     sodipodi:nodetypes="ccccccc" />
  <path
     style="fill:#ffccaa;stroke:#6e2c00;stroke-width:2;stroke-linecap:butt;stroke-linejoin:miter;stroke-opacity:1;stroke-miterlimit:4;stroke-dasharray:2, 2;stroke-dashoffset:0"
     d="m 316.84556,272.67761 c -3.96522,5.57812 -2.3405,7.96199 -1.58687,10.84363 1.07986,5.46629 4.2715,2.48542 6.61197,2.90926 1.82468,-1.61354 4.46524,-2.4112 5.02509,-5.28957 1.19603,-1.88956 1.9603,-4.21088 1.05792,-8.19885 -3.7027,-3.05444 -7.40541,-5.52367 -11.10811,-0.26447 z"
     id="path3833"
     inkscape:connector-curvature="0"
     sodipodi:nodetypes="cccccc" />
  <path
     style="fill:#ffccaa;stroke:#6e2c00;stroke-width:2;stroke-linecap:butt;stroke-linejoin:miter;stroke-miterlimit:4;stroke-opacity:1;stroke-dasharray:2, 2;stroke-dashoffset:0"
     d="m 332.71429,204.17761 c 18.89335,2.69443 18.47076,-1.83849 16.92664,12.16602 0.47373,14.18203 -3.38906,10.1197 -5.55406,11.10811 l -11.37258,0 c -7.71381,0.19734 -6.09946,-3.25547 -6.08302,-6.08301 l 0.52896,-12.43051 c 0.60607,-4.49252 2.84777,-5.16859 5.55406,-4.76061 z"
     id="path3837"
     inkscape:connector-curvature="0"
     sodipodi:nodetypes="ccccccc" />
  <path
     style="fill:#ffccaa;stroke:#6e2c00;stroke-width:2;stroke-linecap:butt;stroke-linejoin:miter;stroke-miterlimit:4;stroke-opacity:1;stroke-dasharray:2, 2;stroke-dashoffset:0"
     d="m 332.18533,174.55598 c -3.25134,12.54006 -3.77433,20.01791 -1.58687,22.21622 5.4131,6.50639 6.63341,4.62718 9.52123,6.08301 3.74181,-0.95054 8.35975,2.47959 10.84363,-4.76062 l 2.38031,-22.21621 c -5.65099,-9.31874 -13.45177,-5.02212 -21.1583,-1.3224 z"
     id="path3839"
     inkscape:connector-curvature="0"
     sodipodi:nodetypes="cccccc" />
  <rect
     style="fill:#000000;fill-opacity:1;stroke:none;stroke-width:1;stroke-linejoin:miter;stroke-miterlimit:4;stroke-opacity:1;stroke-dasharray:none;stroke-dashoffset:0"
     id="rect3841"
     width="5.0250964"
     height="7.9343629"
     x="353.07913"
     y="147.31468" />
  <path
     style="fill:none;stroke:#6c0000;stroke-opacity:1;stroke-width:2;stroke-miterlimit:4;stroke-dasharray:none"
     d="m 99.591784,317.51568 -2.87337,45.97393 24.218406,0.82096 8.20963,-46.79489 z"
     id="path2991-1"
     inkscape:connector-curvature="0"
     sodipodi:nodetypes="ccccc" />
  <path
     style="fill:none;stroke:#6c0000;stroke-width:2;stroke-linecap:butt;stroke-linejoin:miter;stroke-opacity:1;stroke-miterlimit:4;stroke-dasharray:none"
     d="m 155.39173,321.42516 -0.82096,8.20963 10.26203,0.61573 0.61573,-8.82536 z"
     id="path3005-7"
     inkscape:connector-curvature="0" />
  <path
     style="fill:none;stroke:#6c0000;stroke-width:2;stroke-linecap:butt;stroke-linejoin:miter;stroke-opacity:1;stroke-miterlimit:4;stroke-dasharray:none"
     d="m 177.98554,372.27029 c -2.45703,-5.77015 -16.35418,-3.57661 -22.80884,-3.74061 -3.09221,1.52098 -3.35739,3.8497 -2.99223,6.3585 -0.59891,6.74943 1.83155,7.87287 4.67537,8.22865 6.17148,0.24935 8.54377,2.01839 18.51445,0.74806 -0.0389,-0.34544 -0.0399,-0.71587 -9e-5,-1.10488"
     id="path3045-4"
     inkscape:connector-curvature="0"
     sodipodi:nodetypes="cccccc" />
  <path
     style="fill:none;stroke:#0000f6;stroke-width:1px;stroke-linecap:butt;stroke-linejoin:miter;stroke-opacity:1"
     d="m 397.79556,437.70669 -0.0227,-16.41387 c -4.68801,-1.94381 -13.25677,-7.87106 -20.39656,-10.57938 -1.84145,-0.69851 -15.48154,-2.4989 -10.93505,-2.33598 4.64039,0.16628 6.04364,-2.04763 13.19864,-0.26448 3.08682,1.96043 5.94989,4.5921 9.35073,5.61045 2.68434,1.97036 5.58623,4.6574 8.93717,3.96134 l -0.0473,-24.04939 c 1.41427,-2.82163 4.70089,-3.5842 2.33104,-9.08625 l -14.58715,-15.33521 c -1.04895,-1.58051 -2.08332,-5.02401 -2.60499,-7.76049 -0.25603,-1.34308 0.31412,-2.66643 -0.30087,-3.22256 -0.76762,-0.69413 -1.93947,-0.50206 -3.82667,1.25828 -1.52432,3.42479 -4.77031,5.16386 -4.02747,12.47522 -2.89627,3.51638 -4.58976,5.63683 -3.82715,0.61582 l 2.24418,-6.35851 c 1.35841,-3.19163 1.60948,-5.39658 -0.37403,-5.61044 l -6.93089,-0.19836 c -1.11647,-8.28237 -5.83119,-6.91693 -11.96895,-6.73253 -13.01467,-3.13839 -29.85518,-1.19189 -45.0592,-1.67178 -2.24433,-3.11472 -0.007,-2.81087 1.12209,-3.03373 l 20.24102,-0.3306 c 7.4295,-0.57763 12.67838,0.78307 18.65804,1.49418 4.04358,0.45805 8.12445,0.54329 12.34297,-0.74806 2.061,-1.42913 4.37147,-2.55628 9.72477,0 4.38208,1.24904 7.8514,6.90503 13.33282,2.9715 3.0555,-2.28822 3.10495,-9.94041 3.12448,-18.68074 -0.52229,-2.78713 0.62579,-5.72043 -2.50477,-9.72476 l 0.10955,-8.11521 6.39999,-0.10955 c -0.0873,-2.59327 1.21049,-7.75387 -4.00477,-9.35463 -9.07979,-0.89331 -12.28425,-0.28362 -13.83909,0.74806 -0.35754,-1.70701 -0.15329,-2.10315 0,-2.61821 7.50579,-0.62631 22.22998,-2.09197 22.44176,-1.87014 7.5048,-1.08297 5.30848,-5.56985 2.99224,-10.0988 -0.83849,-2.89467 -6.75782,-1.76701 -11.59491,-1.49612 -5.06515,-2.03366 -1.47229,-2.30037 1.87014,-2.6182 6.25854,-0.95288 16.37139,0.26317 18.57313,-7.19342 l -0.55165,-24.71253 -10.47283,0.0454 0.39672,-44.19965 c -0.89646,-4.904 -8.3194,3.62318 -11.68566,5.36865 -0.91018,-0.0353 -0.51412,-0.97741 -0.37209,-2.24028 l 10.47088,-8.60657 c 4.87782,-2.15703 3.62445,-9.219 4.48836,-14.58715 -0.37403,-3.24159 -0.74806,-6.48318 -1.12209,-9.72477 -2.10268,-6.26067 -5.3524,-7.85673 -10.0988,-3.36626 l -1.87014,7.85461 c -1.27311,9.90391 -2.04745,9.33366 -2.61821,4.48836 l 1.12209,-11.22089 c 0.0165,-3.02203 2.48938,-5.83936 -3.36627,-9.35073 -1.77343,-0.2908 -4.00946,-0.38335 -8.22864,0.37403 -1.87015,0.12468 -6.02114,0.55364 -5.61045,0.37403 l 2.55097,-1.11564 3.43431,-1.50195 c 2.5595,-2.49346 5.02762,-1.65967 7.40031,-1.48007 l 2.71842,-0.54368 c 3.53174,1.33039 5.68162,0.89091 11.57417,1.27507 l 2.61821,-3.74029 1.49612,-6.3585 1.49612,-5.23642 c -2.21997,-2.96803 -0.84035,-2.33647 -7.48059,-9.72476 -4.16619,-5.00801 -8.25608,-10.16861 -15.33521,-9.35074 -3.49087,-1.86977 -6.45485,-1.10509 -10.84686,-7.48059 0.15848,-1.99482 -2.45602,-3.98965 -4.11432,-5.98447 -0.1884,-7.60804 1.20273,-12.05701 2.99224,-15.70924 l 1.87014,-5.984467 c 7.8781,1.873387 7.40948,-6.269294 10.84686,-9.724765 3.82077,-3.879703 1.19904,-9.90691 -0.74806,-15.709238 -3.20395,-3.438012 -6.64959,-6.815603 -5.98447,-11.220883 0.79791,-1.471193 -1.23561,-4.358099 -2.24418,-6.732531"
     id="path3897"
     inkscape:connector-curvature="0"
     sodipodi:nodetypes="ccssccccccssccccccccccccccccccccccccccccccccccccccccscccccccccccccccccc" />
  <path
     style="fill:none;stroke:#0000f6;stroke-width:1px;stroke-linecap:butt;stroke-linejoin:miter;stroke-opacity:1"
     d="m 401.33361,56.151265 c 4.16733,3.51912 5.85213,7.264956 5.23641,11.220884 -2.1195,2.170944 -4.239,12.51732 -6.3585,21.319679 -1.62334,5.093563 -6.60395,9.707516 -1.87015,15.709242 1.81412,7.43695 5.75958,13.41746 10.0988,18.32744"
     id="path3899"
     inkscape:connector-curvature="0"
     sodipodi:nodetypes="ccccc" />
  <path
     style="fill:none;stroke:#0000f6;stroke-width:1px;stroke-linecap:butt;stroke-linejoin:miter;stroke-opacity:1"
     d="m 84.156628,341.72275 c -1.558456,-0.52421 -3.116913,0.17302 -4.675369,-2.6182 l -0.748058,-10.47283 c -0.745439,-1.12558 -2.103346,-1.43454 0,-6.3585 3.748336,-14.67435 1.895134,-9.41004 2.431191,-13.27805 -0.07494,-5.12335 -0.482071,-8.08742 0.374029,-19.26251 1.29392,-4.09572 0.324656,3.91371 7.667604,-23.00281 -0.04353,-4.89108 1.692569,-10.13809 -0.561044,-14.58715 -0.385921,-1.29983 -4.08396,-2.18564 -8.415663,-2.99224 -0.640438,-2.10329 -6.300886,-0.66589 -0.748058,-5.42343 l 6.171485,-0.37402 c 4.188347,1.64431 6.043611,-1.3081 7.854619,-6.3585 l 0,-21.69371 c -1.346748,-6.37024 -1.885212,-15.16534 -2.244177,-24.49893 l 1.122089,-12.34297 -5.049398,0 0,-2.99224 6.358501,0 -0.187015,-5.23641 -5.797457,0 c -4.178141,-1.66595 -4.793481,-7.19159 -2.992235,-15.33521 2.054096,-4.08285 0.630983,-7.81797 7.106559,-12.34297 2.060305,-4.59429 7.341263,-4.17867 5.423428,-14.96118 -0.984211,-4.2845 3.083941,-8.34934 -8.415663,-13.09103 -9.67413,-1.70756 -17.716299,-4.75036 -32.540563,-2.24418 l -8.041633,0.74806"
     id="path3901"
     inkscape:connector-curvature="0"
     sodipodi:nodetypes="cccccccccccccccccccccccccc" />
  <path
     style="fill:none;stroke:#0000f6;stroke-width:1px;stroke-linecap:butt;stroke-linejoin:miter;stroke-opacity:1"
     d="m 48.2498,99.912711 c 7.205094,4.803399 5.387822,2.627869 15.335208,1.870149 7.912239,-0.36898 15.370458,-2.251354 24.685944,2.05716 6.465224,1.79201 12.599378,1.37688 17.579388,-6.732529 9.75452,-5.201967 8.40805,2.449842 9.16372,7.667599 l 2.24417,10.28581 c 2.86756,5.32393 5.73512,3.21815 8.60268,0.18702 l -0.18701,-5.98447 c -0.12505,-8.2294 1.96372,-12.031146 3.17925,-17.579387 -0.56085,-7.178836 -3.02666,-13.701438 2.05716,-18.514458 8.11919,1.251114 9.22843,0.499383 13.83909,0.748059 1.49612,0.498706 1.49612,1.246765 0,2.244177 -4.95063,-0.279469 -5.25194,0.370924 -7.85462,0.561044 -4.5553,0.317592 -2.24474,2.160933 -2.80522,3.366265 0.39966,11.015181 -0.39105,11.317023 -0.93507,13.83909 -1.03039,-0.820843 -1.0954,16.26081 -1.68314,25.62102 -3.64913,3.78403 -2.96977,5.87475 -2.80522,8.22865 l -1.87014,10.47282 c -2.03839,0.7018 -4.46589,2.10399 -4.11433,-1.49612 0.4397,-2.05126 0.35891,-4.05047 -4.11432,-5.61044 -3.4202,-3.17202 -5.32775,-1.30187 -7.29358,0.37403 -4.41468,4.56203 -2.26196,5.37125 -3.36626,8.04163 -0.78485,6.9313 2.62063,10.00247 5.0494,12.15596 1.74547,1.91176 3.49094,0.73934 5.23641,-1.3091 l 2.99223,-3.92731 c 2.56839,-0.49463 4.93225,-2.64903 3.17925,2.6182 -8.73241,10.27283 -7.32727,9.81179 -8.04163,11.59492 0.006,3.38899 0.65265,9.34311 1.12209,14.58715 l -1.3091,5.98447 c -4.33437,5.13155 -0.83776,5.56449 -0.74806,8.04163 3.85744,5.66525 1.12209,4.73771 1.68313,7.10656 l 3.36626,6.3585 c 0.90754,1.89335 -0.17457,0.65245 -2.24417,0.56105 -2.45966,-1.50397 -4.31954,-3.36784 -4.30134,-6.3585 0.6558,-13.28219 -5.29302,-13.15168 -5.61044,-14.58715 -7.83866,-1.99461 -6.00704,1.53665 -7.48059,3.17925 -1.386037,10.23138 -2.056516,26.18724 -2.992237,40.02115 -1.312102,14.22211 -1.072632,23.78951 -0.935074,33.66265 -1.489083,10.55895 -2.713224,16.5732 -4.301339,25.434 1.000193,5.14149 -2.436604,4.44182 -4.114324,5.42343 -5.727152,3.74414 -3.369704,5.0629 -4.675368,7.48059 -0.330737,6.42979 0.04649,12.4498 -0.264897,17.93838 -0.415923,7.33118 -1.327198,14.00749 0.264897,22.26979 l 0.718368,2.192"
     id="path3903"
     inkscape:connector-curvature="0"
     sodipodi:nodetypes="cscccccccccccccccccccccccccccccccccccccccccc" />
  <path
     style="fill:#e6e6e6;stroke:#6c5454;stroke-width:2;stroke-linecap:butt;stroke-linejoin:miter;stroke-opacity:1;stroke-miterlimit:4;stroke-dasharray:2, 2;stroke-dashoffset:0"
     d="m 177.72973,371.85714 c -5.33812,2.12903 -5.1521,6.09945 -4.23166,10.31467 1.67503,0.53911 3.35007,2.31287 5.0251,0.26448 1.10596,-4.02472 5.26911,-9.16116 -0.79344,-10.57915 z"
     id="path3043"
     inkscape:connector-curvature="0"
     sodipodi:nodetypes="cccc" />
  <path
     style="fill:none;stroke:#6c0000;stroke-width:2;stroke-linecap:butt;stroke-linejoin:miter;stroke-opacity:1;stroke-miterlimit:4;stroke-dasharray:none"
     d="m 176.09655,397.3533 220.42856,38.58526 0.41048,-74.70763 -13.95637,0 0.82096,-46.79489 6.97819,0 16.41926,-16.41926 -1.23145,-40.22719 -10.26203,0 0.82096,-123.55492 -27.09178,-0.41048 -10.67252,-17.24022 8.20963,-15.18782 -156.80392,-43.100555 -0.82097,28.323222 -69.37137,-2.87337 -4.10481,36.122373 -9.85156,41.45863 -3.28385,139.15322"
     id="path2989"
     inkscape:connector-curvature="0"
     sodipodi:nodetypes="ccccccccccccccccccc" />
  <path
     style="fill:none;stroke:#6c0000;stroke-width:2;stroke-linecap:butt;stroke-linejoin:miter;stroke-opacity:1;stroke-miterlimit:4;stroke-dasharray:none"
     d="m 87.432555,298.83774 -4.515296,68.96089 -10.672519,0 -1.641926,22.98696 -6.567703,-0.82096 -2.462889,59.10933 102.620368,20.1136 29.14419,-164.60308 z"
     id="path2987"
     inkscape:connector-curvature="0" />
  <path
     style="fill:none;stroke:#000000;stroke-width:1;stroke-linecap:butt;stroke-linejoin:miter;stroke-opacity:1;stroke-miterlimit:4;stroke-dasharray:3,1;stroke-dashoffset:0"
     d="m 321.2913,419.7079 c 7.61341,-87.67263 25.33366,-167.76513 40.39518,-249.85168"
     id="path3930"
     inkscape:connector-curvature="0"
     sodipodi:nodetypes="cc" />
  <path
     style="fill:none;stroke:#000000;stroke-width:1;stroke-linecap:butt;stroke-linejoin:miter;stroke-opacity:1;stroke-miterlimit:4;stroke-dasharray:3,1;stroke-dashoffset:0"
     d="m 364.30469,406.9909 c -30.35627,-3.61562 -63.28687,-7.23124 -100.61392,-10.84686 -27.42883,-10.35774 -54.85765,-11.4459 -82.28648,-14.21312"
     id="path3932"
     inkscape:connector-curvature="0"
     sodipodi:nodetypes="ccc" />
  <path
     style="fill:none;stroke:#000000;stroke-width:1;stroke-linecap:butt;stroke-linejoin:miter;stroke-opacity:1;stroke-miterlimit:4;stroke-dasharray:3,1;stroke-dashoffset:0"
     d="m 250.59974,405.12075 38.52503,-178.78608 -7.48059,-6.3585 2.61821,-51.9901 7.10656,-8.9767 10.47282,-73.309778"
     id="path3934"
     inkscape:connector-curvature="0" />
  <path
     style="fill:none;stroke:#000000;stroke-width:1;stroke-linecap:butt;stroke-linejoin:miter;stroke-opacity:1;stroke-miterlimit:4;stroke-dasharray:3,1;stroke-dashoffset:0"
     d="m 366.9229,171.72637 c -21.69371,-3.57157 -43.38742,-4.21003 -65.08113,-4.86239 l -65.45515,-16.45729 -71.43963,-10.0988 -16.83133,-12.34297 -9.72476,-10.47282"
     id="path3936"
     inkscape:connector-curvature="0"
     sodipodi:nodetypes="cccccc" />
  <path
     style="fill:none;stroke:#000000;stroke-width:1;stroke-linecap:butt;stroke-linejoin:miter;stroke-opacity:1;stroke-miterlimit:4;stroke-dasharray:3,1;stroke-dashoffset:0"
     d="m 187.76279,87.56974 -1.49612,45.63159"
     id="path3938"
     inkscape:connector-curvature="0" />
  <path
     style="fill:none;stroke:#000000;stroke-width:1;stroke-linecap:butt;stroke-linejoin:miter;stroke-opacity:1;stroke-miterlimit:4;stroke-dasharray:3,1;stroke-dashoffset:0"
     d="m 393.10496,234.93735 -29.54833,-6.73253 -119.68942,-3.36627 -45.25757,-13.09103"
     id="path3942"
     inkscape:connector-curvature="0" />
  <path
     style="fill:none;stroke:#000000;stroke-width:1;stroke-linecap:butt;stroke-linejoin:miter;stroke-opacity:1;stroke-miterlimit:4;stroke-dasharray:4,1;stroke-dashoffset:0"
     d="M 384.50228,289.17162 340.3668,287.6755"
     id="path3944"
     inkscape:connector-curvature="0" />
  <path
     style="fill:none;stroke:#000000;stroke-width:1;stroke-linecap:butt;stroke-linejoin:miter;stroke-opacity:1;stroke-miterlimit:4;stroke-dasharray:4,1;stroke-dashoffset:0"
     d="m 198.98367,241.66988 -71.81365,-5.23642"
     id="path3946"
     inkscape:connector-curvature="0" />
  <path
     style="fill:none;stroke:#000000;stroke-width:1;stroke-linecap:butt;stroke-linejoin:miter;stroke-miterlimit:4;stroke-opacity:1;stroke-dasharray:4, 1;stroke-dashoffset:0"
     d="m 135.02463,225.58661 -2.24417,76.67604 -15.70924,95.75154 -1.87015,11.59491"
     id="path3948"
     inkscape:connector-curvature="0"
     sodipodi:nodetypes="ccc" />
  <path
     style="fill:none;stroke:#000000;stroke-width:1;stroke-linecap:butt;stroke-linejoin:miter;stroke-opacity:1;stroke-miterlimit:4;stroke-dasharray:4,1;stroke-dashoffset:0"
     d="M 152.22999,357.99304 140.63508,459.35502"
     id="path3950"
     inkscape:connector-curvature="0" />
  <path
     style="fill:none;stroke:#000000;stroke-width:1;stroke-linecap:butt;stroke-linejoin:miter;stroke-opacity:1;stroke-miterlimit:4;stroke-dasharray:4,1;stroke-dashoffset:0"
     d="m 69.569479,394.64792 46.379651,2.61821"
     id="path3952"
     inkscape:connector-curvature="0" />
  <path
     sodipodi:type="arc"
     style="fill:#feffcd;fill-opacity:1;stroke:#6e6e00;stroke-width:2;stroke-linejoin:miter;stroke-miterlimit:4;stroke-opacity:1;stroke-dasharray:2, 2;stroke-dashoffset:0"
     id="path3954"
     sodipodi:cx="23.009653"
     sodipodi:cy="519.96527"
     sodipodi:rx="8.198842"
     sodipodi:ry="7.9343629"
     d="m 31.208495,519.96527 a 8.198842,7.9343629 0 1 1 -16.397684,0 8.198842,7.9343629 0 1 1 16.397684,0 z"
     transform="translate(317.37451,-34.911197)" />
  <path
     transform="translate(212.962,7.6115865)"
     sodipodi:type="arc"
     style="fill:#ffccaa;stroke:#6e2c00;stroke-width:2;stroke-linejoin:miter;stroke-miterlimit:4;stroke-opacity:1;stroke-dasharray:2, 2;stroke-dashoffset:0"
     id="path3954-9"
     sodipodi:cx="23.009653"
     sodipodi:cy="519.96527"
     sodipodi:rx="8.198842"
     sodipodi:ry="7.9343629"
     d="m 31.208495,519.96527 a 8.198842,7.9343629 0 1 1 -16.397684,0 8.198842,7.9343629 0 1 1 16.397684,0 z"
     inkscape:transform-center-x="-73.525097"
     inkscape:transform-center-y="-68.764479" />
  <path
     sodipodi:type="arc"
     style="fill:#e6e6e6;stroke:#6c5454;stroke-width:2;stroke-linejoin:miter;stroke-miterlimit:4;stroke-opacity:1;stroke-dasharray:2, 2;stroke-dashoffset:0"
     id="path3954-4"
     sodipodi:cx="23.009653"
     sodipodi:cy="519.96527"
     sodipodi:rx="8.198842"
     sodipodi:ry="7.9343629"
     d="m 31.208495,519.96527 a 8.198842,7.9343629 0 1 1 -16.397684,0 8.198842,7.9343629 0 1 1 16.397684,0 z"
     transform="translate(317.6956,-13.017757)" />
  <path
     sodipodi:type="arc"
     style="fill:#ffe6d5;stroke:#ffa001;stroke-width:2;stroke-linejoin:miter;stroke-miterlimit:4;stroke-opacity:1;stroke-dasharray:2, 2;stroke-dashoffset:0"
     id="path3954-8"
     sodipodi:cx="23.009653"
     sodipodi:cy="519.96527"
     sodipodi:rx="8.198842"
     sodipodi:ry="7.9343629"
     d="m 31.208495,519.96527 a 8.198842,7.9343629 0 1 1 -16.397684,0 8.198842,7.9343629 0 1 1 16.397684,0 z"
     transform="translate(317.37452,8.4633008)" />
  <text
     xml:space="preserve"
     style="font-size:12px;font-style:oblique;font-weight:normal;line-height:125%;letter-spacing:0px;word-spacing:0px;fill:#000000;fill-opacity:1;stroke:none;font-family:Sans;-inkscape-font-specification:Sans Oblique"
     x="250.22794"
     y="530.9624"
     id="text4007"
     sodipodi:linespacing="125%"><tspan
       sodipodi:role="line"
       id="tspan4009"
       x="250.22794"
       y="530.9624">Résidences</tspan></text>
  <text
     xml:space="preserve"
     style="font-size:12px;font-style:oblique;font-weight:normal;line-height:125%;letter-spacing:0px;word-spacing:0px;fill:#000000;fill-opacity:1;stroke:none;font-family:Sans;-inkscape-font-specification:Sans Oblique"
     x="355.00681"
     y="488.74973"
     id="text4007-8"
     sodipodi:linespacing="125%"><tspan
       sodipodi:role="line"
       id="tspan4009-2"
       x="355.00681"
       y="488.74973">Artisanat du bronze</tspan></text>
  <text
     xml:space="preserve"
     style="font-size:12px;font-style:oblique;font-weight:normal;line-height:125%;letter-spacing:0px;word-spacing:0px;fill:#000000;fill-opacity:1;stroke:none;font-family:Sans;-inkscape-font-specification:Sans Oblique"
     x="354.76297"
     y="510.43698"
     id="text4007-8-4"
     sodipodi:linespacing="125%"
     inkscape:transform-center-x="-56.598456"
     inkscape:transform-center-y="52.366795"><tspan
       sodipodi:role="line"
       id="tspan4009-2-5"
       x="354.76297"
       y="510.43698">Artisanat du fer</tspan></text>
  <text
     xml:space="preserve"
     style="font-size:12px;font-style:oblique;font-weight:normal;line-height:125%;letter-spacing:0px;word-spacing:0px;fill:#000000;fill-opacity:1;stroke:none;font-family:Sans;-inkscape-font-specification:Sans Oblique"
     x="354.5567"
     y="531.66852"
     id="text4007-8-4-5"
     sodipodi:linespacing="125%"
     inkscape:transform-center-x="-56.598456"
     inkscape:transform-center-y="52.366795"><tspan
       sodipodi:role="line"
       id="tspan4009-2-5-1"
       x="354.5567"
       y="531.66852">Atelier monétaire</tspan></text>
  <text
     xml:space="preserve"
     style="font-size:12px;font-style:oblique;font-weight:normal;line-height:125%;letter-spacing:0px;word-spacing:0px;fill:#000000;fill-opacity:1;stroke:none;font-family:Sans;-inkscape-font-specification:Sans Oblique"
     x="354.83109"
     y="465.47559"
     id="text4007-8-4-5-7"
     sodipodi:linespacing="125%"
     inkscape:transform-center-x="-56.598456"
     inkscape:transform-center-y="52.366795"><tspan
       sodipodi:role="line"
       id="tspan4009-2-5-1-1"
       x="354.83109"
       y="465.47559">Artisanat de l'os</tspan></text>
  <path
     sodipodi:type="arc"
     style="fill:#f5cdff;fill-opacity:1;stroke:#660080;stroke-width:2;stroke-linejoin:miter;stroke-miterlimit:4;stroke-opacity:1;stroke-dasharray:2, 2;stroke-dashoffset:0"
     id="path3954-1"
     sodipodi:cx="23.009653"
     sodipodi:cy="519.96527"
     sodipodi:rx="8.198842"
     sodipodi:ry="7.9343629"
     d="m 31.208495,519.96527 a 8.198842,7.9343629 0 1 1 -16.397684,0 8.198842,7.9343629 0 1 1 16.397684,0 z"
     transform="translate(317.11003,-57.656391)" />
  <rect
     style="fill:none;stroke:#6c0000;stroke-width:2;stroke-linejoin:miter;stroke-miterlimit:4;stroke-opacity:1;stroke-dasharray:none;stroke-dashoffset:0"
     id="rect4113"
     width="16.397684"
     height="14.810811"
     x="227.98068"
     y="486.9054" />
  <rect
     style="opacity:0.6;fill:#6c0000;fill-opacity:1;stroke:none"
     id="rect4113-5"
     width="16.397684"
     height="14.810811"
     x="227.18727"
     y="487.43439"
     inkscape:transform-center-x="-51.30888"
     inkscape:transform-center-y="35.440154" />
  <text
     xml:space="preserve"
     style="font-size:12px;font-style:oblique;font-weight:normal;line-height:125%;letter-spacing:0px;word-spacing:0px;fill:#000000;fill-opacity:1;stroke:none;font-family:Sans;-inkscape-font-specification:Sans Oblique"
     x="250.80215"
     y="497.742"
     id="text4007-2"
     sodipodi:linespacing="125%"><tspan
       sodipodi:role="line"
       id="tspan4009-7"
       x="250.80215"
       y="497.742">Palais</tspan></text>
  <text
     xml:space="preserve"
     style="font-size:12px;font-style:normal;font-weight:normal;line-height:125%;letter-spacing:0px;word-spacing:0px;fill:#000000;fill-opacity:1;stroke:none;font-family:Sans;-inkscape-font-specification:Sans"
     x="24.683205"
     y="508.94354"
     id="text4007-2-6"
     sodipodi:linespacing="125%"><tspan
       sodipodi:role="line"
       x="24.683205"
       y="508.94354"
       id="tspan4175">1. Terrasse du duc Huang</tspan><tspan
       sodipodi:role="line"
       x="24.683205"
       y="523.94354"
       id="tspan4237">2. Fosse sacrificielle de Heyatou</tspan></text>
  <text
     xml:space="preserve"
     style="font-size:12px;font-style:normal;font-weight:bold;line-height:125%;letter-spacing:0px;word-spacing:0px;fill:#000000;fill-opacity:1;stroke:none;font-family:Sans;-inkscape-font-specification:Sans Bold"
     x="108.3604"
     y="342.31125"
     id="text4187"
     sodipodi:linespacing="125%"><tspan
       sodipodi:role="line"
       id="tspan4189"
       x="108.3604"
       y="342.31125">1</tspan></text>
  <text
     xml:space="preserve"
     style="font-size:12px;font-style:normal;font-weight:bold;line-height:125%;letter-spacing:0px;word-spacing:0px;fill:#000000;fill-opacity:1;stroke:none;font-family:Sans;-inkscape-font-specification:Sans Bold"
     x="357.72845"
     y="144.24637"
     id="text4187-4"
     sodipodi:linespacing="125%"><tspan
       sodipodi:role="line"
       id="tspan4189-2"
       x="357.72845"
       y="144.24637">2</tspan></text>
  <text
     xml:space="preserve"
     style="font-size:12px;font-style:oblique;font-weight:normal;line-height:125%;letter-spacing:0px;word-spacing:0px;fill:#0000f6;fill-opacity:1;stroke:none;font-family:Sans;-inkscape-font-specification:Sans Oblique"
     x="369.76447"
     y="114.61015"
     id="text4007-8-4-5-7-3"
     sodipodi:linespacing="125%"
     inkscape:transform-center-x="-56.598456"
     inkscape:transform-center-y="52.366795"><tspan
       sodipodi:role="line"
       id="tspan4009-2-5-1-1-2"
       x="369.76447"
       y="114.61015">R. Zi</tspan></text>
  <g
     id="g1052"
     transform="matrix(0.85948584,0,0,0.94064161,-496.54813,3.74916)">
    <polygon
       points="632.165,58 624.507,29.398 616.835,58 623,58 623,81 626,81 626,58 "
       id="polygon1054"
       style="fill:#1b1b1b" />
  </g>
  <text
     xml:space="preserve"
     style="font-size:20px;font-style:normal;font-weight:normal;line-height:125%;letter-spacing:0px;word-spacing:0px;fill:#000000;fill-opacity:1;stroke:none;font-family:Sans"
     x="36.02153"
     y="24.028219"
     id="text4045"
     sodipodi:linespacing="125%"
     transform="scale(0.9558886,1.046147)"><tspan
       sodipodi:role="line"
       id="tspan4047"
       style="font-size:16px"
       x="36.02153"
       y="24.028219">N</tspan></text>
  <path
     style="fill:#e6e6e6;stroke:#6c5454;stroke-width:2;stroke-linecap:butt;stroke-linejoin:miter;stroke-opacity:1;stroke-miterlimit:4;stroke-dasharray:2, 2;stroke-dashoffset:0"
     d="m 313.53958,203.91313 c -1.94534,1.85038 -0.97857,4.18611 -1.05792,6.34749 -1.03952,3.55207 2.54965,2.47545 4.3639,3.17374 1.45774,0.40604 2.84513,0.86552 2.90927,-2.90926 -0.50785,-4.28302 1.5104,-7.86927 -6.21525,-6.61197 z"
     id="path3037"
     inkscape:connector-curvature="0"
     sodipodi:nodetypes="ccccc" />
  <path
     style="fill:#f5cdff;stroke:#660080;stroke-width:2;stroke-linecap:butt;stroke-linejoin:miter;stroke-opacity:1;stroke-miterlimit:4;stroke-dasharray:2, 2;stroke-dashoffset:0;fill-opacity:1"
     d="m 352.41795,156.83591 c 4.32067,-1.45524 5.3606,-0.5671 7.40541,-0.39672 3.72941,0.83057 5.94507,1.05563 7.93436,1.19015 4.76093,-0.97085 9.42405,-1.59936 13.48842,-0.13224 9.53335,1.94498 5.62325,4.33808 5.28957,6.61197 -0.9045,2.16454 -2.86521,2.51005 -5.02509,2.51255 -3.04147,-0.61702 -5.59569,0.22773 -7.93436,1.71911 0.18265,1.46117 -9.61582,2.28485 -10.57916,0.92568 -0.4588,-0.64733 -7.80212,-1.05792 -7.80212,-1.05792 -4.45855,0.36736 -4.13294,-2.83454 -4.09942,-5.81853 -0.0646,-1.85135 -0.001,-3.7027 1.32239,-5.55405 z"
     id="path3019"
     inkscape:connector-curvature="0"
     sodipodi:nodetypes="cccccccsccc" />
  <path
     style="fill:#e6e6e6;stroke:#6c5454;stroke-width:2;stroke-linecap:butt;stroke-linejoin:miter;stroke-opacity:1;stroke-miterlimit:4;stroke-dasharray:2, 2;stroke-dashoffset:0"
     d="m 379.79151,192.80502 c -0.47298,2.1353 -1.17115,4.45826 0.39671,4.89286 2.24135,2.02974 2.54821,0.78593 3.43823,0.52895 0.25633,-1.15906 0.72059,-0.86256 0.6612,-4.23166 0.4103,-3.94203 -2.66851,-1.40427 -4.49614,-1.19015 z"
     id="path3023"
     inkscape:connector-curvature="0"
     sodipodi:nodetypes="ccccc" />
  <path
     style="fill:none;stroke:#000000;stroke-width:2;stroke-linecap:butt;stroke-linejoin:miter;stroke-miterlimit:4;stroke-opacity:1;stroke-dasharray:none"
     d="m 355.45946,29.092662 37.02703,0"
     id="path3078"
     inkscape:connector-curvature="0" />
  <path
     style="fill:none;stroke:#000000;stroke-width:1px;stroke-linecap:butt;stroke-linejoin:miter;stroke-opacity:1"
     d="m 355.04746,26.88346 0,4.581861"
     id="path3848"
     inkscape:connector-curvature="0" />
  <path
     style="fill:none;stroke:#000000;stroke-width:1px;stroke-linecap:butt;stroke-linejoin:miter;stroke-opacity:1"
     d="m 392.82443,26.836706 0,4.581861"
     id="path3848-1"
     inkscape:connector-curvature="0" />
  <text
     xml:space="preserve"
     style="font-size:12px;font-style:normal;font-weight:normal;line-height:125%;letter-spacing:0px;word-spacing:0px;fill:#000000;fill-opacity:1;stroke:none;font-family:Sans"
     x="368.14691"
     y="24.809839"
     id="text4045-7"
     sodipodi:linespacing="125%"
     transform="scale(0.9558886,1.046147)"><tspan
       sodipodi:role="line"
       id="tspan4047-4"
       style="font-size:12px"
       x="368.14691"
       y="24.809839">0</tspan></text>
  <text
     xml:space="preserve"
     style="font-size:12px;font-style:normal;font-weight:normal;line-height:125%;letter-spacing:0px;word-spacing:0px;fill:#000000;fill-opacity:1;stroke:none;font-family:Sans"
     x="400.90356"
     y="24.663273"
     id="text4045-7-0"
     sodipodi:linespacing="125%"
     transform="scale(0.9558886,1.046147)"><tspan
       sodipodi:role="line"
       id="tspan4047-4-9"
       style="font-size:12px"
       x="400.90356"
       y="24.663273">500 m</tspan></text>
  <text
     xml:space="preserve"
     style="font-size:12px;font-style:oblique;font-weight:normal;line-height:125%;letter-spacing:0px;word-spacing:0px;fill:#0000f6;fill-opacity:1;stroke:none;font-family:Sans;-inkscape-font-specification:Sans Oblique"
     x="70.912155"
     y="113.55241"
     id="text4007-8-4-5-7-3-4"
     sodipodi:linespacing="125%"
     inkscape:transform-center-x="-56.598456"
     inkscape:transform-center-y="52.366795"><tspan
       sodipodi:role="line"
       id="tspan4009-2-5-1-1-2-8"
       x="70.912155"
       y="113.55241">     R. Xi</tspan><tspan
       sodipodi:role="line"
       x="70.912155"
       y="128.5524"
       id="tspan3935">(ancien lit)</tspan></text>
</svg>
