<?xml version="1.0" encoding="utf-8"?>
<!-- Generator: Adobe Illustrator 16.0.0, SVG Export Plug-In . SVG Version: 6.00 Build 0)  -->
<!DOCTYPE svg PUBLIC "-//W3C//DTD SVG 1.1//EN" "http://www.w3.org/Graphics/SVG/1.1/DTD/svg11.dtd">
<svg version="1.1" id="Layer_1" xmlns="http://www.w3.org/2000/svg" xmlns:xlink="http://www.w3.org/1999/xlink" x="0px" y="0px"
	 width="750px" height="450px" viewBox="0 0 750 450" enable-background="new 0 0 750 450" xml:space="preserve">
<g>
	<rect fill="#FFFFFF" width="750" height="451"/>
	<path fill="#346733" stroke="#FFFFFF" stroke-miterlimit="10" d="M483.5,394.75l-11.667,2.041l-8.333,3.355l-2.167,4.843
		l-2.833,6.505l4.833,5.006H476l10-10.875l-1.167-4.667C484.833,400.958,489.696,393.666,483.5,394.75z"/>
	<polygon fill="#C0C0C0" stroke="#FFFFFF" stroke-miterlimit="10" points="608,295.5 604,295.5 599.75,297.5 596.875,305.625 
		592.5,314.25 592.5,321 595.75,326.5 601.875,331 607.5,332 607.5,330 606,326.75 607.875,322.5 609.688,316.25 608.219,309 
		609.734,304.25 	"/>
	<path fill="#C0C0C0" stroke="#FFFFFF" stroke-miterlimit="10" d="M707.25,16.125l-1.875,3.563l1.063,3.281l3.031,3.391L705.5,28.5
		h-5V32l2.5,4.25l2.133,9.25l3.82,6L711.5,67v5l-5.5,4.5L700.5,87v6v12l-8.25,7.5l-6.375,4.25l-8.938,7.25l-9.344,7.25l-7.094,12
		V151l10.75-3.75l5.375-7.25l5.313-2.5l7.781-7l7.766-5.75l4.258,0.5l3.504,5.5l6.752,0.25c0,0,3.751-8,5.751-9.5
		s0.001-7.5,0.001-7.5l3-4.5l7.75-4.5l2.5-7.75l6.5-0.5V94l-1.5-4.25c0,0,2.375-1,4.625,2.25s3.813,3,3.813-1.75
		s-1.469-11.75-1.469-11.75l-4.234-10.25c0,0-2.742-14.25-6.992-14.25s-3.246-11.5-3.246-11.5l-3.498-11l-8.999-6.75L711,20
		l-1.75-1.75L707.25,16.125z"/>
	<polygon fill="#C0C0C0" stroke="#FFFFFF" stroke-miterlimit="10" points="676.375,157 671.438,152.625 663.469,154.688 
		657.609,156.781 653.5,163 653.5,170 659,174.75 662.875,172.5 660.938,167.25 663.969,166.25 669.484,172.5 668.992,177 
		671.246,181.75 676.373,184.5 679.999,179.25 681.25,174.25 678.5,169.75 677,164 678,159.5 	"/>
	<path fill="#C0C0C0" stroke="#FFFFFF" stroke-miterlimit="10" d="M698.875,131.125l-6.813,1.313l-1.531,3.031l-3.766,3.266
		L679.5,143.5v6.5l1.5,5c0,0,7.875,3.75,8.25,0s0.063-9,0.063-9l3.031-0.75l6.156-1.291V142v-6l1.75-1L698.875,131.125z"/>
	<path fill="#C0C0C0" stroke="#FFFFFF" stroke-miterlimit="10" d="M698.375,6.813c0.527-1.932,8.145-5.313,12.633-6.313h-20.041
		c0.295,1-0.311,1.975-2.967,2.25c-7.25,0.75-2.514,5.875-2.514,5.875s0.263,5.938,0.013,7.563s3.249,6.595,5.991,4.345
		s7.756,2.235,7.756,2.235l3.742-1.756l-2.504-2.75l-3.016-2.119c0,0-6.281-2.485-6.031-4.735S697.625,9.563,698.375,6.813z"/>
	<path fill="#C0C0C0" stroke="#FFFFFF" stroke-miterlimit="10" d="M353,8.5l-4.334,7.291L341,20.854l-6.167,8.323L327,36.5h-9
		l3-4.083l9.167-3.708l2.167-5.77l7.332-7.762L346.703,1.5H-0.5v450h124.761l17.208-13.75l13.516-3.625l5.508-10.063l3.004-7.531
		c0,0,9.502-2.016,13.002-7.016s7.501,1.492,7.501,1.492l8.001-1.754l6-0.754h9l5.5-5l6.5-4.625l8,2.813c0,0,7.5,9.406,8.5,17.906
		s21,17.453,21,17.453l7.5,4.227l1.784,10.227h197.913L460,445.813l-16.5-8.656l-9-7.078l-10-5.539l-4.25-11.52l5.25-6.02v-7.5
		l10.25-12.25L451,382.5h15.5l3.5,13h5l2.25-4.25L473.5,387v-5l9.75-8l19.875-10l18.188-7.5l10.094-8.5l8.047-6l16.023-4l3.512-7
		l2.006-10.5l8.253-11c0,0,1.503-6.5,6.503-10.5s-1.25-6-1.25-6v-7.626L576,277c0,0,0.625-7,6.625-14s-0.313-5.25,0.188-13.25
		S579,237.5,579,237.5h-5l4-10l-2-11.125l-10-6.188l-8.5-8.594l-8-6.547l-7.5-3.023l-6-10.012c0,0,5-11.506,7.5-17.506
		s10-5.003,11.5-11.003s-10.5-2.001-10.5-2.001l-11,3.499c0,0-10.5,12.5-11.5,10s-7.5-5.5-12.5-6.5s-11-7-11-9.5s6-6.5,6-6.5
		L512,132l11-13.5l11.5-4.5l5,2.5l-2.5,7l-2.5,7.5l4.5,6l8.5-9.5c0,0,11.5-9,15-13s16.25,3.5,16.25,3.5l-3.25,9v4.5L586,130
		l10.625-2l2.688,6l1.094,9c0,0,7.047,2.5,5.547,7s2.023,14.5,2.023,14.5l6.012,6l8.506-9c0,0,6.003-7.5,9.503-10s3.003-13,3.003-13
		l-4.5-10l-11.75-7l-11.25-5l-4.5-4.497l-6.006-7.997l5.494-11.494l2.488-14.488l-2.523-10.477c0,0,5.453-7.953,5.953-14.953
		s7.406-4.406,7.406-4.406l13.313-4.813c0,0,6.625-13.875,6.625-21.875c0-6.004,1.83-16,2.744-20H355.112L353,8.5z M87.667,107
		c-6,4.667-25-1-25-1L49,108.002l-5,4l-4,2.337l2,5.005l-2,3.011l-7-5.313l-2-4.291l4.667-4.5L49,103.5h15.333l13,1.417
		l10.333-1.876C87.667,103.041,93.667,102.334,87.667,107z"/>
	<path fill="#346733" d="M603.602,86.029c-12.315,5.666-31.012,13.414-40.57,13.096c-15-0.5-13.516-20.044-31.516-0.053
		c-18,19.99-24.508,28.959-37.508,22.959s-16.504-7.016-21.504,3.984s-83.502-0.508-83.502,24.992s-12.501,34.496-26.001,29.996
		S266,148.002,245.5,159.002c-20.5,11-25-34.501-25-34.501L210,115.5c0,0-4.5-10-22-3.5s-15,17.25-31.5,19.125S134.5,147,134.5,147
		l-20.5,1l-22.5,8.666L73,163.5l-17.5,5.063L27,175.5l-10,6.611c0,0-16.5,11.889,3,23.389s21,27,37.5,27s32,10.5,43.5,0
		s25.5-7,25.5-7s46.5-11,48-15s19-12.5,19-12.5l15.5-5.5c0,0,51-24,74-12s46-7,79,27c10.74,11.066,18.248,17.786,23.803,21.804
		l-0.47,4.696l-7.409,5.334L375.333,250l-5,7L365,262.334c0,0-5.999,11-4.333,16.666s-0.666,11.667-0.666,11.667l-8.999,9.667
		l-1.482,19c0,0,1.49,14.333,0.157,19.333s6.546,13,6.546,13l16.819,7c0,0,17.042,2.333,24.374,1.667
		c5.446-0.494,7.812,7.83,8.67,12.149c-4.859,1.606-8.141,3.656-8.586,7.517c-1.5,13,15.5,9.5,14,18.5
		c-1.324,7.947-5.251,46.299,40.279,42.765L443.5,437l-9-7l-10-5.5L421,413l6-6v-7.5l9.5-13L451,381h15.5l3.5,13h5l3-3.5l-3-3.5v-5
		l9-8l19.5-10l18-7.5l10-8.5l8-6l16-4l3.5-7l2-10.5l8.25-11c0,0,2.25-6.5,7.25-10.5s-0.5-6-0.5-6v-7.626l0.75-8.374
		c0,0,0.25-7,6.25-14s-0.5-6,0-14s-4-13-4-13h-5l4-9.25L576,216l-10-6l-8.5-8.5l-8-6.5l-7.5-3l-6-10c0,0,5-11.5,7.5-17.5
		s10-5,11.5-11s-10.5-2-10.5-2l-11,3.5c0,0-10.5,12.5-11.5,10s-7.5-5.5-12.5-6.5s-11-7-11-9.5s6-6.5,6-6.5L512,132l11-13.5l11.5-4.5
		l5,2.5l-2.5,7l-2.5,7.5l4.5,6l8.5-9.5c0,0,11.5-9,15-13s17,3.5,17,3.5l-2.5,9v4.5l9.75-1.5l10.25-2l1.818,4.363
		c2.587-3.232,4.17-7.15,2.494-11.363c-1.738-4.37-0.941-7.553,1.08-9.807l-5.398-7.188l5.494-11.494L603.602,86.029z"/>
	<path fill="#49C846" d="M218.261,178.581c6.011-2.919,3.989-7.331,10.701-13.182c2.249-1.96,4.675-3.797,6.913-5.38
		c-12.354-5.007-15.375-35.519-15.375-35.519L210,115.5c0,0-4.5-10-22-3.5s-15,17.25-31.5,19.125S134.5,147,134.5,147l-20.5,1
		l-22.5,8.666L73,163.5l-17.5,5.063L27,175.5l-10,6.611c0,0-16.5,11.889,3,23.389s21,27,37.5,27s32,10.5,43.5,0s25.5-7,25.5-7
		s46.5-11,48-15s19-12.5,19-12.5l15.5-5.5c0,0,4.755-2.236,12.01-5.002C218.575,183.34,215.281,180.028,218.261,178.581z"/>
	<path fill="none" stroke="#FFFFFF" stroke-width="2" stroke-miterlimit="10" stroke-dasharray="6.9338,4.9527" d="M603.602,86.029
		c-12.315,5.666-31.012,13.414-40.57,13.096c-15-0.5-13.516-20.044-31.516-0.053c-18,19.99-24.508,28.959-37.508,22.959
		s-16.504-7.016-21.504,3.984s-83.502-0.508-83.502,24.992s-12.501,34.496-26.001,29.996S266,148.002,245.5,159.002
		c-20.5,11-25-34.501-25-34.501L210,115.5c0,0-4.5-10-22-3.5s-15,17.25-31.5,19.125S134.5,147,134.5,147l-20.5,1l-22.5,8.666
		L73,163.5l-17.5,5.063L27,175.5l-10,6.611c0,0-16.5,11.889,3,23.389s21,27,37.5,27s32,10.5,43.5,0s25.5-7,25.5-7s46.5-11,48-15
		s19-12.5,19-12.5l15.5-5.5c0,0,51-24,74-12s46-7,79,27c10.74,11.066,18.248,17.786,23.803,21.804l-0.47,4.696l-7.409,5.334
		L375.333,250l-5,7L365,262.334c0,0-5.999,11-4.333,16.666s-0.666,11.667-0.666,11.667l-8.999,9.667l-1.482,19
		c0,0,1.49,14.333,0.157,19.333s6.546,13,6.546,13l16.819,7c0,0,17.042,2.333,24.374,1.667c5.446-0.494,7.812,7.83,8.67,12.149
		c-4.859,1.606-8.141,3.656-8.586,7.517c-1.5,13,15.5,9.5,14,18.5c-1.324,7.947-5.251,46.299,40.279,42.765"/>
	<path fill="none" stroke="#FFFFFF" stroke-width="2" stroke-miterlimit="10" stroke-dasharray="6.9338,4.9527" d="M598.693,132.363
		c2.587-3.232,4.232-7.15,2.557-11.363c-1.738-4.37-0.91-7.553,1.111-9.807"/>
	<path fill="none" stroke="#FFFFFF" stroke-width="2" stroke-miterlimit="10" stroke-dasharray="6.9338,4.9527" d="M221.01,187.498
		c-2.435-4.158-5.729-7.47-2.749-8.917c6.011-2.919,3.989-7.331,10.701-13.182c2.249-1.96,4.675-3.797,6.913-5.38"/>
	<rect fill="none" stroke="#585C60" stroke-width="4" stroke-miterlimit="10" width="750" height="451"/>
	<rect x="561.5" y="358.5" fill="#FFFFFF" stroke="#585C60" stroke-miterlimit="10" width="161" height="65"/>
	<rect x="569" y="370" fill="#346733" width="14" height="14"/>
	<g>
		<path fill="#35383A" d="M600.738,382v-10.021h1.326v4.115h5.209v-4.115h1.326V382h-1.326v-4.724h-5.209V382H600.738z"/>
		<path fill="#35383A" d="M615.388,381.104c-0.456,0.388-0.895,0.661-1.316,0.82c-0.421,0.159-0.873,0.239-1.356,0.239
			c-0.798,0-1.41-0.195-1.839-0.584c-0.429-0.391-0.643-0.888-0.643-1.494c0-0.355,0.081-0.68,0.242-0.975
			c0.162-0.293,0.374-0.529,0.637-0.707c0.262-0.178,0.557-0.313,0.885-0.403c0.241-0.063,0.606-0.125,1.094-0.185
			c0.993-0.118,1.725-0.26,2.194-0.424c0.005-0.169,0.007-0.275,0.007-0.321c0-0.501-0.116-0.854-0.349-1.06
			c-0.314-0.278-0.781-0.417-1.401-0.417c-0.579,0-1.006,0.102-1.281,0.304c-0.276,0.203-0.48,0.563-0.612,1.077l-1.203-0.164
			c0.109-0.515,0.289-0.931,0.54-1.247c0.251-0.317,0.613-0.561,1.087-0.732c0.474-0.17,1.023-0.256,1.647-0.256
			c0.62,0,1.123,0.073,1.511,0.219s0.672,0.329,0.854,0.551c0.183,0.221,0.31,0.5,0.383,0.837c0.041,0.21,0.062,0.588,0.062,1.135
			v1.641c0,1.144,0.026,1.867,0.079,2.171c0.052,0.303,0.155,0.593,0.311,0.871h-1.285
			C615.506,381.745,615.424,381.446,615.388,381.104z M615.285,378.356c-0.446,0.183-1.116,0.337-2.01,0.465
			c-0.506,0.073-0.863,0.155-1.073,0.246s-0.371,0.225-0.485,0.399c-0.114,0.176-0.171,0.371-0.171,0.585
			c0,0.328,0.124,0.602,0.373,0.82c0.248,0.219,0.611,0.328,1.09,0.328c0.474,0,0.896-0.104,1.265-0.312
			c0.369-0.207,0.641-0.49,0.813-0.851c0.132-0.278,0.198-0.688,0.198-1.23V378.356z"/>
		<path fill="#35383A" d="M618.437,382v-7.26h1.107v1.032c0.533-0.798,1.304-1.196,2.311-1.196c0.438,0,0.84,0.078,1.206,0.236
			c0.367,0.156,0.642,0.363,0.824,0.618s0.31,0.559,0.383,0.909c0.046,0.228,0.068,0.627,0.068,1.196V382h-1.23v-4.416
			c0-0.501-0.048-0.876-0.144-1.125c-0.096-0.248-0.266-0.446-0.509-0.594c-0.244-0.148-0.53-0.223-0.858-0.223
			c-0.524,0-0.977,0.166-1.356,0.499c-0.381,0.333-0.571,0.964-0.571,1.894V382H618.437z"/>
		<path fill="#35383A" d="M634.822,382v-0.916c-0.46,0.72-1.137,1.08-2.03,1.08c-0.579,0-1.11-0.159-1.597-0.479
			c-0.484-0.319-0.861-0.765-1.127-1.336c-0.268-0.572-0.4-1.229-0.4-1.973c0-0.725,0.121-1.382,0.362-1.973
			c0.241-0.59,0.604-1.042,1.087-1.356s1.023-0.472,1.62-0.472c0.438,0,0.827,0.092,1.169,0.277c0.342,0.184,0.62,0.425,0.834,0.721
			v-3.596h1.224V382H634.822z M630.933,378.377c0,0.93,0.196,1.625,0.588,2.085s0.854,0.69,1.388,0.69
			c0.538,0,0.994-0.22,1.371-0.66c0.375-0.439,0.563-1.11,0.563-2.013c0-0.993-0.191-1.723-0.574-2.188s-0.854-0.697-1.415-0.697
			c-0.547,0-1.004,0.224-1.371,0.67C631.116,376.711,630.933,377.415,630.933,378.377z"/>
		<path fill="#35383A" d="M637.844,384.796l-0.137-1.155c0.269,0.073,0.504,0.109,0.704,0.109c0.273,0,0.492-0.046,0.656-0.137
			s0.299-0.219,0.403-0.383c0.077-0.123,0.203-0.429,0.376-0.916c0.022-0.068,0.06-0.169,0.109-0.301l-2.755-7.273h1.326
			l1.511,4.204c0.196,0.533,0.371,1.094,0.526,1.682c0.142-0.565,0.31-1.116,0.506-1.654l1.552-4.231h1.23l-2.762,7.383
			c-0.296,0.798-0.526,1.347-0.69,1.647c-0.219,0.405-0.47,0.703-0.752,0.892c-0.282,0.189-0.62,0.284-1.012,0.284
			C638.399,384.946,638.136,384.896,637.844,384.796z"/>
		<path fill="#35383A" d="M644.898,382v-7.26h1.107v1.032c0.533-0.798,1.304-1.196,2.311-1.196c0.438,0,0.84,0.078,1.206,0.236
			c0.367,0.156,0.642,0.363,0.824,0.618s0.31,0.559,0.383,0.909c0.046,0.228,0.068,0.627,0.068,1.196V382h-1.23v-4.416
			c0-0.501-0.048-0.876-0.144-1.125c-0.096-0.248-0.266-0.446-0.509-0.594c-0.244-0.148-0.53-0.223-0.858-0.223
			c-0.524,0-0.977,0.166-1.356,0.499c-0.381,0.333-0.571,0.964-0.571,1.894V382H644.898z"/>
		<path fill="#35383A" d="M657.422,381.104c-0.456,0.388-0.895,0.661-1.316,0.82c-0.421,0.159-0.873,0.239-1.356,0.239
			c-0.798,0-1.41-0.195-1.839-0.584c-0.429-0.391-0.643-0.888-0.643-1.494c0-0.355,0.081-0.68,0.242-0.975
			c0.162-0.293,0.374-0.529,0.637-0.707c0.262-0.178,0.557-0.313,0.885-0.403c0.241-0.063,0.606-0.125,1.094-0.185
			c0.993-0.118,1.725-0.26,2.194-0.424c0.005-0.169,0.007-0.275,0.007-0.321c0-0.501-0.116-0.854-0.349-1.06
			c-0.314-0.278-0.781-0.417-1.401-0.417c-0.579,0-1.006,0.102-1.281,0.304c-0.276,0.203-0.48,0.563-0.612,1.077l-1.203-0.164
			c0.109-0.515,0.289-0.931,0.54-1.247c0.251-0.317,0.613-0.561,1.087-0.732c0.474-0.17,1.023-0.256,1.647-0.256
			c0.62,0,1.123,0.073,1.511,0.219s0.672,0.329,0.854,0.551c0.183,0.221,0.31,0.5,0.383,0.837c0.041,0.21,0.062,0.588,0.062,1.135
			v1.641c0,1.144,0.026,1.867,0.079,2.171c0.052,0.303,0.155,0.593,0.311,0.871h-1.285
			C657.54,381.745,657.458,381.446,657.422,381.104z M657.319,378.356c-0.446,0.183-1.116,0.337-2.01,0.465
			c-0.506,0.073-0.863,0.155-1.073,0.246s-0.371,0.225-0.485,0.399c-0.114,0.176-0.171,0.371-0.171,0.585
			c0,0.328,0.124,0.602,0.373,0.82c0.248,0.219,0.611,0.328,1.09,0.328c0.474,0,0.896-0.104,1.265-0.312
			c0.369-0.207,0.641-0.49,0.813-0.851c0.132-0.278,0.198-0.688,0.198-1.23V378.356z"/>
		<path fill="#35383A" d="M659.979,379.833l1.217-0.191c0.068,0.487,0.259,0.861,0.571,1.121c0.312,0.26,0.748,0.39,1.309,0.39
			c0.565,0,0.984-0.115,1.258-0.346c0.273-0.229,0.41-0.5,0.41-0.81c0-0.278-0.121-0.497-0.362-0.656
			c-0.169-0.109-0.588-0.248-1.258-0.417c-0.902-0.228-1.528-0.425-1.876-0.592c-0.35-0.166-0.613-0.396-0.793-0.689
			c-0.181-0.295-0.271-0.619-0.271-0.975c0-0.323,0.074-0.623,0.222-0.898c0.148-0.276,0.351-0.505,0.605-0.688
			c0.191-0.142,0.452-0.261,0.783-0.359c0.33-0.098,0.685-0.146,1.063-0.146c0.569,0,1.07,0.082,1.5,0.246
			c0.432,0.164,0.749,0.387,0.954,0.666c0.205,0.281,0.347,0.655,0.424,1.125l-1.203,0.164c-0.055-0.374-0.213-0.665-0.476-0.875
			c-0.262-0.21-0.632-0.314-1.11-0.314c-0.565,0-0.969,0.094-1.21,0.28s-0.362,0.405-0.362,0.656c0,0.159,0.05,0.303,0.15,0.431
			c0.101,0.132,0.258,0.241,0.472,0.328c0.123,0.046,0.485,0.15,1.087,0.314c0.87,0.232,1.478,0.423,1.821,0.57
			c0.345,0.148,0.614,0.364,0.811,0.646s0.294,0.634,0.294,1.053c0,0.41-0.12,0.797-0.358,1.158
			c-0.24,0.363-0.585,0.643-1.036,0.842c-0.451,0.197-0.962,0.297-1.531,0.297c-0.943,0-1.662-0.196-2.157-0.588
			C660.431,381.185,660.115,380.604,659.979,379.833z"/>
		<path fill="#35383A" d="M670.157,380.899l0.178,1.087c-0.347,0.073-0.656,0.109-0.93,0.109c-0.446,0-0.793-0.07-1.039-0.212
			s-0.419-0.327-0.52-0.558c-0.101-0.229-0.15-0.714-0.15-1.452v-4.177h-0.902v-0.957h0.902v-1.798l1.224-0.738v2.536h1.237v0.957
			h-1.237v4.245c0,0.351,0.021,0.576,0.065,0.677c0.043,0.101,0.113,0.18,0.211,0.239c0.099,0.06,0.238,0.089,0.421,0.089
			C669.754,380.947,669.934,380.932,670.157,380.899z"/>
		<path fill="#35383A" d="M671.306,384.796l-0.137-1.155c0.269,0.073,0.504,0.109,0.704,0.109c0.273,0,0.492-0.046,0.656-0.137
			s0.299-0.219,0.403-0.383c0.077-0.123,0.203-0.429,0.376-0.916c0.022-0.068,0.06-0.169,0.109-0.301l-2.755-7.273h1.326
			l1.511,4.204c0.196,0.533,0.371,1.094,0.526,1.682c0.142-0.565,0.31-1.116,0.506-1.654l1.552-4.231h1.23l-2.762,7.383
			c-0.296,0.798-0.526,1.347-0.69,1.647c-0.219,0.405-0.47,0.703-0.752,0.892c-0.282,0.189-0.62,0.284-1.012,0.284
			C671.861,384.946,671.598,384.896,671.306,384.796z"/>
	</g>
	<rect x="569" y="397" fill="#49C846" width="14" height="14"/>
	<g>
		<path fill="#35383A" d="M600.157,409v-10.021h1.89c0.333,0,0.587,0.032,0.763,0.096c0.246,0.082,0.452,0.238,0.618,0.469
			c0.167,0.229,0.301,0.552,0.402,0.967s0.152,0.87,0.152,1.367c0,0.853-0.136,1.573-0.407,2.164
			c-0.271,0.59-0.761,0.885-1.47,0.885h-1.285V409H600.157z M600.82,403.743h1.295c0.429,0,0.733-0.159,0.913-0.479
			s0.271-0.768,0.271-1.347c0-0.419-0.054-0.778-0.159-1.076c-0.106-0.299-0.246-0.496-0.419-0.592
			c-0.111-0.06-0.318-0.089-0.619-0.089h-1.281V403.743z"/>
		<path fill="#35383A" d="M604.741,409v-7.26h0.553v1.101c0.142-0.515,0.272-0.854,0.392-1.019c0.12-0.164,0.251-0.246,0.396-0.246
			c0.207,0,0.418,0.132,0.632,0.396l-0.212,1.142c-0.15-0.178-0.301-0.267-0.451-0.267c-0.135,0-0.255,0.081-0.362,0.242
			c-0.107,0.162-0.184,0.387-0.229,0.674c-0.068,0.438-0.102,0.916-0.102,1.436V409H604.741z"/>
		<path fill="#35383A" d="M606.85,405.37c0-1.345,0.187-2.34,0.561-2.987c0.313-0.538,0.692-0.807,1.142-0.807
			c0.499,0,0.907,0.327,1.224,0.98c0.316,0.654,0.475,1.558,0.475,2.711c0,0.935-0.069,1.669-0.21,2.205
			c-0.14,0.535-0.344,0.951-0.611,1.247s-0.561,0.444-0.877,0.444c-0.508,0-0.919-0.326-1.232-0.978S606.85,406.596,606.85,405.37z
			 M607.482,405.37c0,0.93,0.101,1.626,0.304,2.089c0.203,0.462,0.458,0.693,0.766,0.693c0.306,0,0.56-0.232,0.763-0.697
			c0.202-0.465,0.304-1.174,0.304-2.126c0-0.897-0.102-1.578-0.306-2.04c-0.204-0.463-0.458-0.694-0.761-0.694
			c-0.308,0-0.563,0.23-0.766,0.69S607.482,404.44,607.482,405.37z"/>
		<path fill="#35383A" d="M612.314,407.899l0.089,1.087c-0.173,0.073-0.328,0.109-0.465,0.109c-0.224,0-0.396-0.07-0.52-0.212
			s-0.21-0.327-0.26-0.558c-0.05-0.229-0.075-0.714-0.075-1.452v-4.177h-0.451v-0.957h0.451v-1.798l0.611-0.738v2.536h0.619v0.957
			h-0.619v4.245c0,0.351,0.012,0.576,0.033,0.677s0.057,0.18,0.105,0.239s0.119,0.089,0.211,0.089
			C612.113,407.947,612.203,407.932,612.314,407.899z"/>
		<path fill="#35383A" d="M615.401,406.662l0.636,0.157c-0.101,0.743-0.286,1.319-0.557,1.729c-0.271,0.41-0.618,0.615-1.039,0.615
			c-0.531,0-0.952-0.327-1.264-0.98c-0.311-0.654-0.467-1.571-0.467-2.752c0-1.222,0.158-2.169,0.473-2.844s0.722-1.012,1.223-1.012
			c0.486,0,0.883,0.33,1.189,0.991c0.309,0.661,0.462,1.591,0.462,2.789c0,0.073-0.001,0.183-0.003,0.328h-2.707
			c0.022,0.798,0.135,1.408,0.338,1.832s0.456,0.636,0.759,0.636c0.226,0,0.418-0.118,0.577-0.355
			C615.182,407.56,615.308,407.182,615.401,406.662z M613.381,404.673h2.027c-0.027-0.61-0.104-1.068-0.232-1.374
			c-0.196-0.474-0.45-0.711-0.762-0.711c-0.283,0-0.521,0.189-0.713,0.567S613.402,404.039,613.381,404.673z"/>
		<path fill="#35383A" d="M619.178,406.341l0.605,0.157c-0.066,0.834-0.235,1.486-0.508,1.959c-0.272,0.471-0.607,0.707-1.004,0.707
			c-0.496,0-0.896-0.324-1.197-0.975c-0.302-0.648-0.453-1.58-0.453-2.792c0-0.784,0.064-1.47,0.195-2.058
			c0.129-0.588,0.327-1.029,0.593-1.322c0.266-0.295,0.554-0.441,0.866-0.441c0.395,0,0.717,0.199,0.967,0.598
			c0.251,0.399,0.412,0.966,0.482,1.699l-0.598,0.185c-0.058-0.487-0.158-0.854-0.303-1.101s-0.32-0.369-0.525-0.369
			c-0.31,0-0.562,0.223-0.755,0.666c-0.193,0.445-0.29,1.147-0.29,2.109c0,0.976,0.093,1.684,0.279,2.126
			c0.188,0.442,0.432,0.663,0.732,0.663c0.241,0,0.442-0.148,0.604-0.444S619.135,406.956,619.178,406.341z"/>
		<path fill="#35383A" d="M621.652,407.899l0.089,1.087c-0.173,0.073-0.328,0.109-0.465,0.109c-0.224,0-0.396-0.07-0.52-0.212
			s-0.21-0.327-0.26-0.558c-0.05-0.229-0.075-0.714-0.075-1.452v-4.177h-0.451v-0.957h0.451v-1.798l0.611-0.738v2.536h0.619v0.957
			h-0.619v4.245c0,0.351,0.012,0.576,0.033,0.677s0.057,0.18,0.105,0.239s0.119,0.089,0.211,0.089
			C621.451,407.947,621.541,407.932,621.652,407.899z"/>
		<path fill="#35383A" d="M622.025,405.37c0-1.345,0.187-2.34,0.561-2.987c0.313-0.538,0.692-0.807,1.142-0.807
			c0.499,0,0.907,0.327,1.224,0.98c0.316,0.654,0.475,1.558,0.475,2.711c0,0.935-0.069,1.669-0.21,2.205
			c-0.14,0.535-0.344,0.951-0.611,1.247s-0.561,0.444-0.877,0.444c-0.508,0-0.919-0.326-1.232-0.978S622.025,406.596,622.025,405.37
			z M622.658,405.37c0,0.93,0.101,1.626,0.304,2.089c0.203,0.462,0.458,0.693,0.766,0.693c0.306,0,0.56-0.232,0.763-0.697
			c0.202-0.465,0.304-1.174,0.304-2.126c0-0.897-0.102-1.578-0.306-2.04c-0.204-0.463-0.458-0.694-0.761-0.694
			c-0.308,0-0.563,0.23-0.766,0.69S622.658,404.44,622.658,405.37z"/>
		<path fill="#35383A" d="M626.141,409v-7.26h0.553v1.101c0.142-0.515,0.272-0.854,0.392-1.019c0.12-0.164,0.251-0.246,0.396-0.246
			c0.207,0,0.418,0.132,0.632,0.396l-0.212,1.142c-0.15-0.178-0.301-0.267-0.451-0.267c-0.135,0-0.255,0.081-0.362,0.242
			c-0.107,0.162-0.184,0.387-0.229,0.674c-0.068,0.438-0.102,0.916-0.102,1.436V409H626.141z"/>
		<path fill="#35383A" d="M630.848,408.104c-0.228,0.388-0.447,0.661-0.658,0.82s-0.437,0.239-0.678,0.239
			c-0.399,0-0.706-0.195-0.92-0.584c-0.214-0.391-0.321-0.888-0.321-1.494c0-0.355,0.04-0.68,0.121-0.975
			c0.081-0.293,0.188-0.529,0.318-0.707s0.278-0.313,0.442-0.403c0.121-0.063,0.303-0.125,0.547-0.185
			c0.497-0.118,0.862-0.26,1.098-0.424c0.002-0.169,0.003-0.275,0.003-0.321c0-0.501-0.058-0.854-0.175-1.06
			c-0.156-0.278-0.391-0.417-0.7-0.417c-0.289,0-0.503,0.102-0.641,0.304c-0.138,0.203-0.24,0.563-0.306,1.077l-0.602-0.164
			c0.055-0.515,0.145-0.931,0.27-1.247c0.125-0.317,0.307-0.561,0.543-0.732c0.237-0.17,0.512-0.256,0.824-0.256
			c0.31,0,0.562,0.073,0.756,0.219c0.193,0.146,0.336,0.329,0.427,0.551c0.091,0.221,0.155,0.5,0.191,0.837
			c0.021,0.21,0.03,0.588,0.03,1.135v1.641c0,1.144,0.014,1.867,0.04,2.171c0.026,0.303,0.078,0.593,0.155,0.871h-0.643
			C630.907,408.745,630.866,408.446,630.848,408.104z M630.797,405.356c-0.224,0.183-0.559,0.337-1.006,0.465
			c-0.252,0.073-0.432,0.155-0.536,0.246s-0.186,0.225-0.243,0.399c-0.057,0.176-0.085,0.371-0.085,0.585
			c0,0.328,0.063,0.602,0.187,0.82s0.306,0.328,0.545,0.328c0.237,0,0.447-0.104,0.633-0.312c0.184-0.207,0.319-0.49,0.406-0.851
			c0.066-0.278,0.1-0.688,0.1-1.23V405.356z"/>
		<path fill="#35383A" d="M633.715,407.899l0.089,1.087c-0.173,0.073-0.328,0.109-0.465,0.109c-0.224,0-0.396-0.07-0.52-0.212
			s-0.21-0.327-0.26-0.558c-0.05-0.229-0.075-0.714-0.075-1.452v-4.177h-0.451v-0.957h0.451v-1.798l0.611-0.738v2.536h0.619v0.957
			h-0.619v4.245c0,0.351,0.012,0.576,0.033,0.677s0.057,0.18,0.105,0.239s0.119,0.089,0.211,0.089
			C633.514,407.947,633.604,407.932,633.715,407.899z"/>
		<path fill="#35383A" d="M636.802,406.662l0.636,0.157c-0.101,0.743-0.286,1.319-0.557,1.729c-0.271,0.41-0.618,0.615-1.039,0.615
			c-0.531,0-0.952-0.327-1.264-0.98c-0.311-0.654-0.467-1.571-0.467-2.752c0-1.222,0.158-2.169,0.473-2.844s0.722-1.012,1.223-1.012
			c0.486,0,0.883,0.33,1.189,0.991c0.309,0.661,0.462,1.591,0.462,2.789c0,0.073-0.001,0.183-0.003,0.328h-2.707
			c0.022,0.798,0.135,1.408,0.338,1.832s0.456,0.636,0.759,0.636c0.226,0,0.418-0.118,0.577-0.355
			C636.582,407.56,636.708,407.182,636.802,406.662z M634.781,404.673h2.027c-0.027-0.61-0.104-1.068-0.232-1.374
			c-0.196-0.474-0.45-0.711-0.762-0.711c-0.283,0-0.521,0.189-0.713,0.567S634.803,404.039,634.781,404.673z"/>
		<path fill="#35383A" d="M639.926,405.37c0-1.345,0.187-2.34,0.561-2.987c0.313-0.538,0.692-0.807,1.142-0.807
			c0.499,0,0.907,0.327,1.224,0.98c0.316,0.654,0.475,1.558,0.475,2.711c0,0.935-0.069,1.669-0.21,2.205
			c-0.14,0.535-0.344,0.951-0.611,1.247s-0.561,0.444-0.877,0.444c-0.508,0-0.919-0.326-1.232-0.978S639.926,406.596,639.926,405.37
			z M640.559,405.37c0,0.93,0.101,1.626,0.304,2.089c0.203,0.462,0.458,0.693,0.766,0.693c0.306,0,0.56-0.232,0.763-0.697
			c0.202-0.465,0.304-1.174,0.304-2.126c0-0.897-0.102-1.578-0.306-2.04c-0.204-0.463-0.458-0.694-0.761-0.694
			c-0.308,0-0.563,0.23-0.766,0.69S640.559,404.44,640.559,405.37z"/>
		<path fill="#35383A" d="M644.194,409v-6.303h-0.544v-0.957h0.544v-0.772c0-0.487,0.021-0.85,0.065-1.087
			c0.059-0.319,0.163-0.578,0.313-0.775c0.149-0.199,0.358-0.298,0.627-0.298c0.173,0,0.364,0.041,0.574,0.123l-0.092,1.073
			c-0.128-0.046-0.249-0.068-0.363-0.068c-0.187,0-0.318,0.08-0.396,0.239c-0.077,0.159-0.115,0.458-0.115,0.896v0.67h0.707v0.957
			h-0.707V409H644.194z"/>
		<path fill="#35383A" d="M649.28,407.899l0.089,1.087c-0.173,0.073-0.328,0.109-0.465,0.109c-0.224,0-0.396-0.07-0.52-0.212
			s-0.21-0.327-0.26-0.558c-0.05-0.229-0.075-0.714-0.075-1.452v-4.177h-0.451v-0.957h0.451v-1.798l0.611-0.738v2.536h0.619v0.957
			h-0.619v4.245c0,0.351,0.012,0.576,0.033,0.677s0.057,0.18,0.105,0.239s0.119,0.089,0.211,0.089
			C649.079,407.947,649.169,407.932,649.28,407.899z"/>
		<path fill="#35383A" d="M649.881,409v-10.021h0.615v3.596c0.287-0.665,0.65-0.998,1.088-0.998c0.269,0,0.502,0.105,0.7,0.318
			c0.198,0.211,0.34,0.504,0.426,0.878c0.085,0.374,0.128,0.916,0.128,1.627V409h-0.615v-4.601c0-0.615-0.066-1.063-0.2-1.343
			c-0.133-0.281-0.321-0.421-0.565-0.421c-0.183,0-0.354,0.095-0.515,0.284c-0.16,0.188-0.274,0.445-0.343,0.769
			s-0.104,0.771-0.104,1.34V409H649.881z"/>
		<path fill="#35383A" d="M656.26,406.662l0.636,0.157c-0.101,0.743-0.286,1.319-0.557,1.729c-0.271,0.41-0.618,0.615-1.039,0.615
			c-0.531,0-0.952-0.327-1.264-0.98c-0.311-0.654-0.467-1.571-0.467-2.752c0-1.222,0.158-2.169,0.473-2.844s0.722-1.012,1.223-1.012
			c0.486,0,0.883,0.33,1.189,0.991c0.309,0.661,0.462,1.591,0.462,2.789c0,0.073-0.001,0.183-0.003,0.328h-2.707
			c0.022,0.798,0.135,1.408,0.338,1.832s0.456,0.636,0.759,0.636c0.226,0,0.418-0.118,0.577-0.355
			C656.04,407.56,656.166,407.182,656.26,406.662z M654.239,404.673h2.027c-0.027-0.61-0.104-1.068-0.232-1.374
			c-0.196-0.474-0.45-0.711-0.762-0.711c-0.283,0-0.521,0.189-0.713,0.567S654.261,404.039,654.239,404.673z"/>
		<path fill="#35383A" d="M660.566,409l-1.329-10.021h0.68l0.762,6.569c0.082,0.688,0.153,1.372,0.213,2.051
			c0.127-1.071,0.202-1.688,0.225-1.853l0.954-6.768h0.8l0.718,5.072c0.18,1.258,0.31,2.44,0.39,3.548
			c0.063-0.634,0.146-1.36,0.25-2.181l0.785-6.439h0.667L664.306,409h-0.639l-1.057-7.636c-0.089-0.638-0.142-1.03-0.157-1.176
			c-0.053,0.46-0.102,0.853-0.147,1.176L661.243,409H660.566z"/>
		<path fill="#35383A" d="M668.578,406.662l0.636,0.157c-0.101,0.743-0.286,1.319-0.557,1.729c-0.271,0.41-0.618,0.615-1.039,0.615
			c-0.531,0-0.952-0.327-1.264-0.98c-0.311-0.654-0.467-1.571-0.467-2.752c0-1.222,0.158-2.169,0.473-2.844s0.722-1.012,1.223-1.012
			c0.486,0,0.883,0.33,1.189,0.991c0.309,0.661,0.462,1.591,0.462,2.789c0,0.073-0.001,0.183-0.003,0.328h-2.707
			c0.022,0.798,0.135,1.408,0.338,1.832s0.456,0.636,0.759,0.636c0.226,0,0.418-0.118,0.577-0.355
			C668.358,407.56,668.484,407.182,668.578,406.662z M666.558,404.673h2.027c-0.027-0.61-0.104-1.068-0.232-1.374
			c-0.196-0.474-0.45-0.711-0.762-0.711c-0.283,0-0.521,0.189-0.713,0.567S666.579,404.039,666.558,404.673z"/>
		<path fill="#35383A" d="M669.74,406.833l0.609-0.191c0.033,0.487,0.129,0.861,0.285,1.121s0.374,0.39,0.654,0.39
			c0.282,0,0.492-0.115,0.629-0.346c0.137-0.229,0.205-0.5,0.205-0.81c0-0.278-0.061-0.497-0.182-0.656
			c-0.084-0.109-0.293-0.248-0.629-0.417c-0.451-0.228-0.764-0.425-0.938-0.592c-0.175-0.166-0.307-0.396-0.396-0.689
			c-0.09-0.295-0.135-0.619-0.135-0.975c0-0.323,0.036-0.623,0.11-0.898c0.074-0.276,0.175-0.505,0.303-0.688
			c0.096-0.142,0.227-0.261,0.392-0.359c0.165-0.098,0.342-0.146,0.531-0.146c0.285,0,0.535,0.082,0.75,0.246
			c0.216,0.164,0.375,0.387,0.477,0.666c0.104,0.281,0.174,0.655,0.213,1.125l-0.602,0.164c-0.027-0.374-0.107-0.665-0.238-0.875
			s-0.316-0.314-0.555-0.314c-0.283,0-0.484,0.094-0.605,0.28s-0.182,0.405-0.182,0.656c0,0.159,0.025,0.303,0.076,0.431
			c0.05,0.132,0.128,0.241,0.235,0.328c0.062,0.046,0.243,0.15,0.544,0.314c0.435,0.232,0.738,0.423,0.91,0.57
			c0.172,0.148,0.308,0.364,0.405,0.646s0.147,0.634,0.147,1.053c0,0.41-0.061,0.797-0.18,1.158
			c-0.12,0.363-0.293,0.643-0.518,0.842c-0.227,0.197-0.481,0.297-0.766,0.297c-0.473,0-0.832-0.196-1.079-0.588
			S669.809,407.604,669.74,406.833z"/>
		<path fill="#35383A" d="M674.83,407.899l0.089,1.087c-0.173,0.073-0.328,0.109-0.465,0.109c-0.224,0-0.396-0.07-0.52-0.212
			s-0.21-0.327-0.26-0.558c-0.05-0.229-0.075-0.714-0.075-1.452v-4.177h-0.451v-0.957h0.451v-1.798l0.611-0.738v2.536h0.619v0.957
			h-0.619v4.245c0,0.351,0.012,0.576,0.033,0.677s0.057,0.18,0.105,0.239s0.119,0.089,0.211,0.089
			C674.629,407.947,674.719,407.932,674.83,407.899z"/>
		<path fill="#35383A" d="M677.916,406.662l0.636,0.157c-0.101,0.743-0.286,1.319-0.557,1.729c-0.271,0.41-0.618,0.615-1.039,0.615
			c-0.531,0-0.952-0.327-1.264-0.98c-0.311-0.654-0.467-1.571-0.467-2.752c0-1.222,0.158-2.169,0.473-2.844s0.722-1.012,1.223-1.012
			c0.486,0,0.883,0.33,1.189,0.991c0.309,0.661,0.462,1.591,0.462,2.789c0,0.073-0.001,0.183-0.003,0.328h-2.707
			c0.022,0.798,0.135,1.408,0.338,1.832s0.456,0.636,0.759,0.636c0.226,0,0.418-0.118,0.577-0.355
			C677.696,407.56,677.822,407.182,677.916,406.662z M675.896,404.673h2.027c-0.027-0.61-0.104-1.068-0.232-1.374
			c-0.196-0.474-0.45-0.711-0.762-0.711c-0.283,0-0.521,0.189-0.713,0.567S675.917,404.039,675.896,404.673z"/>
		<path fill="#35383A" d="M679.318,409v-7.26h0.553v1.101c0.142-0.515,0.272-0.854,0.392-1.019c0.12-0.164,0.251-0.246,0.396-0.246
			c0.207,0,0.418,0.132,0.632,0.396l-0.212,1.142c-0.15-0.178-0.301-0.267-0.451-0.267c-0.135,0-0.255,0.081-0.362,0.242
			c-0.107,0.162-0.184,0.387-0.229,0.674c-0.068,0.438-0.102,0.916-0.102,1.436V409H679.318z"/>
		<path fill="#35383A" d="M681.654,409v-7.26h0.555v1.032c0.266-0.798,0.651-1.196,1.154-1.196c0.219,0,0.42,0.078,0.604,0.236
			c0.184,0.156,0.321,0.363,0.412,0.618s0.155,0.559,0.191,0.909c0.022,0.228,0.034,0.627,0.034,1.196V409h-0.615v-4.416
			c0-0.501-0.024-0.876-0.071-1.125c-0.049-0.248-0.133-0.446-0.255-0.594c-0.122-0.148-0.265-0.223-0.429-0.223
			c-0.263,0-0.488,0.166-0.679,0.499s-0.286,0.964-0.286,1.894V409H681.654z"/>
		<path fill="#35383A" d="M687.582,409v-10.021h2.221c0.447,0,0.787,0.09,1.02,0.27c0.232,0.181,0.418,0.498,0.557,0.954
			s0.209,0.959,0.209,1.511c0,0.711-0.115,1.311-0.346,1.798s-0.586,0.798-1.066,0.93c0.176,0.169,0.309,0.335,0.4,0.499
			c0.193,0.355,0.377,0.8,0.55,1.333l0.872,2.728h-0.834l-0.664-2.085c-0.193-0.602-0.353-1.062-0.479-1.381
			c-0.125-0.319-0.237-0.542-0.336-0.67c-0.1-0.128-0.2-0.217-0.303-0.267c-0.075-0.032-0.198-0.048-0.369-0.048h-0.77V409H687.582z
			 M688.244,403.401h1.426c0.303,0,0.54-0.063,0.711-0.188c0.171-0.125,0.301-0.325,0.39-0.602c0.089-0.275,0.134-0.575,0.134-0.898
			c0-0.474-0.087-0.863-0.259-1.169s-0.443-0.458-0.815-0.458h-1.586V403.401z"/>
		<path fill="#35383A" d="M695.033,406.662l0.636,0.157c-0.101,0.743-0.286,1.319-0.557,1.729c-0.271,0.41-0.618,0.615-1.039,0.615
			c-0.531,0-0.952-0.327-1.264-0.98c-0.311-0.654-0.467-1.571-0.467-2.752c0-1.222,0.158-2.169,0.473-2.844s0.722-1.012,1.223-1.012
			c0.486,0,0.883,0.33,1.189,0.991c0.309,0.661,0.462,1.591,0.462,2.789c0,0.073-0.001,0.183-0.003,0.328h-2.707
			c0.022,0.798,0.135,1.408,0.338,1.832s0.456,0.636,0.759,0.636c0.226,0,0.418-0.118,0.577-0.355
			C694.813,407.56,694.939,407.182,695.033,406.662z M693.013,404.673h2.027c-0.027-0.61-0.104-1.068-0.232-1.374
			c-0.196-0.474-0.45-0.711-0.762-0.711c-0.283,0-0.521,0.189-0.713,0.567S693.034,404.039,693.013,404.673z"/>
		<path fill="#35383A" d="M696.329,409.602l0.599,0.178c0.024,0.369,0.094,0.638,0.208,0.807c0.152,0.228,0.361,0.342,0.626,0.342
			c0.284,0,0.504-0.114,0.659-0.342s0.26-0.547,0.314-0.957c0.032-0.251,0.047-0.777,0.044-1.579
			c-0.269,0.634-0.604,0.95-1.004,0.95c-0.5,0-0.886-0.36-1.159-1.08s-0.41-1.584-0.41-2.591c0-0.692,0.063-1.332,0.188-1.917
			c0.125-0.586,0.307-1.038,0.545-1.357s0.518-0.479,0.839-0.479c0.429,0,0.781,0.347,1.06,1.039v-0.875h0.567v6.275
			c0,1.13-0.058,1.932-0.173,2.402c-0.115,0.473-0.297,0.845-0.547,1.118c-0.249,0.273-0.557,0.41-0.921,0.41
			c-0.433,0-0.782-0.194-1.05-0.585C696.449,410.973,696.32,410.386,696.329,409.602z M696.838,405.24
			c0,0.952,0.095,1.647,0.284,2.085s0.426,0.656,0.711,0.656c0.282,0,0.52-0.218,0.711-0.653c0.191-0.435,0.287-1.117,0.287-2.047
			c0-0.889-0.099-1.559-0.296-2.01s-0.435-0.677-0.713-0.677c-0.273,0-0.506,0.222-0.697,0.667
			C696.934,403.705,696.838,404.365,696.838,405.24z"/>
		<path fill="#35383A" d="M700.338,400.394v-1.415h0.615v1.415H700.338z M700.338,409v-7.26h0.615V409H700.338z"/>
		<path fill="#35383A" d="M701.66,405.37c0-1.345,0.187-2.34,0.561-2.987c0.313-0.538,0.692-0.807,1.142-0.807
			c0.499,0,0.907,0.327,1.224,0.98c0.316,0.654,0.475,1.558,0.475,2.711c0,0.935-0.069,1.669-0.21,2.205
			c-0.14,0.535-0.344,0.951-0.611,1.247s-0.561,0.444-0.877,0.444c-0.508,0-0.919-0.326-1.232-0.978S701.66,406.596,701.66,405.37z
			 M702.293,405.37c0,0.93,0.101,1.626,0.304,2.089c0.203,0.462,0.458,0.693,0.766,0.693c0.306,0,0.56-0.232,0.763-0.697
			c0.202-0.465,0.304-1.174,0.304-2.126c0-0.897-0.102-1.578-0.306-2.04c-0.204-0.463-0.458-0.694-0.761-0.694
			c-0.308,0-0.563,0.23-0.766,0.69S702.293,404.44,702.293,405.37z"/>
		<path fill="#35383A" d="M705.782,409v-7.26h0.555v1.032c0.266-0.798,0.651-1.196,1.154-1.196c0.219,0,0.42,0.078,0.604,0.236
			c0.184,0.156,0.321,0.363,0.412,0.618s0.155,0.559,0.191,0.909c0.022,0.228,0.034,0.627,0.034,1.196V409h-0.615v-4.416
			c0-0.501-0.024-0.876-0.071-1.125c-0.049-0.248-0.133-0.446-0.255-0.594c-0.122-0.148-0.265-0.223-0.429-0.223
			c-0.263,0-0.488,0.166-0.679,0.499s-0.286,0.964-0.286,1.894V409H705.782z"/>
		<path fill="#35383A" d="M709.43,406.833l0.609-0.191c0.033,0.487,0.129,0.861,0.285,1.121s0.374,0.39,0.654,0.39
			c0.282,0,0.492-0.115,0.629-0.346c0.137-0.229,0.205-0.5,0.205-0.81c0-0.278-0.061-0.497-0.182-0.656
			c-0.084-0.109-0.293-0.248-0.629-0.417c-0.451-0.228-0.764-0.425-0.938-0.592c-0.175-0.166-0.307-0.396-0.396-0.689
			c-0.09-0.295-0.135-0.619-0.135-0.975c0-0.323,0.036-0.623,0.11-0.898c0.074-0.276,0.175-0.505,0.303-0.688
			c0.096-0.142,0.227-0.261,0.392-0.359c0.165-0.098,0.342-0.146,0.531-0.146c0.285,0,0.535,0.082,0.75,0.246
			c0.216,0.164,0.375,0.387,0.477,0.666c0.104,0.281,0.174,0.655,0.213,1.125l-0.602,0.164c-0.027-0.374-0.107-0.665-0.238-0.875
			s-0.316-0.314-0.555-0.314c-0.283,0-0.484,0.094-0.605,0.28s-0.182,0.405-0.182,0.656c0,0.159,0.025,0.303,0.076,0.431
			c0.05,0.132,0.128,0.241,0.235,0.328c0.062,0.046,0.243,0.15,0.544,0.314c0.435,0.232,0.738,0.423,0.91,0.57
			c0.172,0.148,0.308,0.364,0.405,0.646s0.147,0.634,0.147,1.053c0,0.41-0.061,0.797-0.18,1.158
			c-0.12,0.363-0.293,0.643-0.518,0.842c-0.227,0.197-0.481,0.297-0.766,0.297c-0.473,0-0.832-0.196-1.079-0.588
			S709.498,407.604,709.43,406.833z"/>
	</g>
	<line fill="none" stroke="#35383A" stroke-miterlimit="10" x1="588" y1="378.5" x2="595" y2="378.5"/>
	<line fill="none" stroke="#35383A" stroke-miterlimit="10" x1="588" y1="405.5" x2="595" y2="405.5"/>
</g>
</svg>
